<?xml version="1.0" encoding="UTF-8"?>
<svg width="475px" height="481px" viewBox="0 0 475 481" version="1.1" xmlns="http://www.w3.org/2000/svg" xmlns:xlink="http://www.w3.org/1999/xlink">
    <g id="favicon" stroke="none" stroke-width="1" fill="none" fill-rule="evenodd">
        <g id="Fav." transform="translate(11, 142)" fill="#000000" fill-rule="nonzero">
            <polygon id="Path" points="125 0 125 34.6190803 45.3091684 34.6190803 45.3091684 83.7515443 111.673774 83.7515443 111.673774 118.503775 45.3091684 118.503775 45.3091684 194 0 194 0 0"></polygon>
            <path d="M243.23348,194.867661 C239.356828,194.867661 236.427313,194.334576 234.444934,193.268406 C232.462555,192.202237 230.810573,189.98105 229.488987,186.604846 L226.581498,179.008388 C223.145374,181.940354 219.84141,184.516931 216.669604,186.738117 C213.497797,188.959304 210.215859,190.847313 206.823789,192.402144 C203.431718,193.956974 199.819383,195.111991 195.986784,195.867195 C192.154185,196.622398 187.903084,197 183.23348,197 C176.977974,197 171.295154,196.178161 166.185022,194.534483 C161.07489,192.890805 156.735683,190.469711 153.167401,187.271202 C149.599119,184.072693 146.845815,180.096769 144.907489,175.34343 C142.969163,170.59009 142,165.103759 142,158.884436 C142,153.997825 143.23348,148.977943 145.700441,143.82479 C148.167401,138.671637 152.440529,133.984933 158.519824,129.764678 C164.599119,125.544424 172.792952,122.012737 183.101322,119.169618 C193.409692,116.326499 206.405286,114.727244 222.088106,114.371855 L222.088106,108.507922 C222.088106,100.422802 220.436123,94.5810811 217.132159,90.9827586 C213.828194,87.3844362 209.136564,85.5852749 203.057269,85.5852749 C198.211454,85.5852749 194.246696,86.1183597 191.162996,87.1845294 C188.079295,88.250699 185.325991,89.4501398 182.903084,90.7828518 C180.480176,92.1155638 178.123348,93.3150047 175.832599,94.3811743 C173.54185,95.4473439 170.810573,95.9804287 167.638767,95.9804287 C164.819383,95.9804287 162.418502,95.2918608 160.436123,93.9147251 C158.453744,92.5375893 156.889868,90.8272756 155.744493,88.7837838 L148.343612,75.8564772 C156.625551,68.4821373 165.810573,62.9958062 175.898678,59.3974837 C185.986784,55.7991612 196.801762,54 208.343612,54 C216.625551,54 224.092511,55.3549239 230.744493,58.0647717 C237.396476,60.7746194 243.035242,64.5506368 247.660793,69.3928239 C252.286344,74.2350109 255.832599,79.9878844 258.299559,86.6514445 C260.76652,93.3150047 262,100.600497 262,108.507922 L262,194.867661 L243.23348,194.867661 Z M196.185022,169.679404 C201.471366,169.679404 206.096916,168.746505 210.061674,166.880708 C214.026432,165.014911 218.035242,161.994098 222.088106,157.818267 L222.088106,138.627213 C213.894273,138.982603 207.154185,139.693383 201.867841,140.759553 C196.581498,141.825722 192.396476,143.158434 189.312775,144.757689 C186.229075,146.356943 184.092511,148.178316 182.903084,150.221808 C181.713656,152.2653 181.118943,154.486486 181.118943,156.885368 C181.118943,161.594284 182.396476,164.903852 184.951542,166.814073 C187.506608,168.724293 191.251101,169.679404 196.185022,169.679404 Z" id="Shape"></path>
            <path d="M362.325967,194 L324.674033,194 L271,57 L305.447514,57 C308.384899,57 310.854972,57.6825779 312.857735,59.0477338 C314.860497,60.4128897 316.217925,62.1083253 316.930018,64.1340405 L336.156538,125.566056 C337.669736,130.586307 339.116176,135.474446 340.495856,140.230473 C341.875537,144.9865 343.054942,149.742527 344.03407,154.498554 C345.013198,149.742527 346.214856,144.9865 347.639042,140.230473 C349.063229,135.474446 350.576427,130.586307 352.178637,125.566056 L372.206262,64.1340405 C372.918355,62.1083253 374.25353,60.4128897 376.211786,59.0477338 C378.170043,57.6825779 380.484346,57 383.154696,57 L416,57 L362.325967,194 Z" id="Path"></path>
            <path d="M407,172.5 C407,169.342105 407.600852,166.403509 408.802557,163.684211 C410.004261,160.964912 411.651042,158.596491 413.742898,156.578947 C415.834754,154.561404 418.304924,152.960526 421.153409,151.776316 C424.001894,150.592105 427.117424,150 430.5,150 C433.793561,150 436.864583,150.592105 439.713068,151.776316 C442.561553,152.960526 445.053977,154.561404 447.190341,156.578947 C449.326705,158.596491 450.995739,160.964912 452.197443,163.684211 C453.399148,166.403509 454,169.342105 454,172.5 C454,175.657895 453.399148,178.618421 452.197443,181.381579 C450.995739,184.144737 449.326705,186.535088 447.190341,188.552632 C445.053977,190.570175 442.561553,192.149123 439.713068,193.289474 C436.864583,194.429825 433.793561,195 430.5,195 C427.117424,195 424.001894,194.429825 421.153409,193.289474 C418.304924,192.149123 415.834754,190.570175 413.742898,188.552632 C411.651042,186.535088 410.004261,184.144737 408.802557,181.381579 C407.600852,178.618421 407,175.657895 407,172.5 Z" id="Path"></path>
        </g>
    </g>
</svg>
