<?xml version="1.0" encoding="UTF-8"?>
<svg width="48px" height="48px" viewBox="0 0 48 48" version="1.1" xmlns="http://www.w3.org/2000/svg" xmlns:xlink="http://www.w3.org/1999/xlink">
    <title>360</title>
    <g id="360" stroke="none" stroke-width="1" fill="none" fill-rule="evenodd">
        <g id="Group" transform="translate(3, 3)" fill="#3C433E" fill-rule="nonzero">
            <path d="M21,0 C32.5979797,0 42,9.40202025 42,21 C42,32.5979797 32.5979797,42 21,42 C9.40202025,42 0,32.5979797 0,21 C0,9.40202025 9.40202025,0 21,0 Z M21,2.625 C10.8517677,2.625 2.625,10.8517677 2.625,21 C2.625,31.1482323 10.8517677,39.375 21,39.375 C31.1482323,39.375 39.375,31.1482323 39.375,21 C39.375,10.8517677 31.1482323,2.625 21,2.625 Z" id="Oval"></path>
            <path d="M21,0 C32.5979797,0 42,9.40202025 42,21 C42,32.5979797 32.5979797,42 21,42 C9.40202025,42 0,32.5979797 0,21 C0,9.40202025 9.40202025,0 21,0 Z M21,4.2 C11.7216162,4.2 4.2,11.7216162 4.2,21 C4.2,30.2783838 11.7216162,37.8 21,37.8 C30.2783838,37.8 37.8,30.2783838 37.8,21 C37.8,11.7216162 30.2783838,4.2 21,4.2 Z" id="Oval"></path>
            <path d="M21,10.5 C26.645799,10.5 31.9367331,11.6190604 35.849275,13.5753611 C39.7765159,15.5389527 42,18.1881815 42,21 C42,23.8117644 39.776597,26.46086 35.8492861,28.4246596 C31.9367107,30.3809473 26.6457781,31.5 21,31.5 C15.3543048,31.5 10.0634065,30.3809499 6.15069477,28.4246238 C2.22347052,26.4608243 0,23.8117242 0,21 C0,18.1882217 2.22355169,15.5389884 6.15076645,13.5753666 C10.0633841,11.6190578 15.3542839,10.5 21,10.5 Z M21,14.7 C15.9763759,14.7 11.3256864,15.6836494 8.02906906,17.3319581 C5.37911459,18.6569451 4.2,20.0617919 4.2,21 C4.2,21.9381541 5.37908985,23.3429521 8.02905212,24.6680597 C11.3256944,26.3163557 15.9763901,27.3 21,27.3 C26.0236885,27.3 30.6744116,26.316354 33.9709338,24.668093 C36.6209865,23.3429694 37.8,21.938222 37.8,21 C37.8,20.061724 36.6209618,18.6569278 33.9709775,17.3319551 C30.6744196,15.6836511 26.0237027,14.7 21,14.7 Z" id="Path"></path>
            <path d="M21,0 C23.8117242,0 26.4608243,2.22347052 28.4246653,6.15077788 C30.3809499,10.0634065 31.5,15.3543048 31.5,21 C31.5,26.6457781 30.3809473,31.9367107 28.424632,35.8493412 C26.46086,39.776597 23.8117644,42 21,42 C18.1881815,42 15.5389527,39.7765159 13.5753724,35.8492975 C11.6190604,31.9367331 10.5,26.645799 10.5,21 C10.5,15.3542839 11.6190578,10.0633841 13.5753694,6.15076094 C15.5389884,2.22355169 18.1882217,0 21,0 Z M21,4.2 C20.0617919,4.2 18.6569451,5.37911459 17.3319609,8.02906355 C15.6836494,11.3256864 14.7,15.9763759 14.7,21 C14.7,26.0237027 15.6836511,30.6744196 17.3319664,33.971 C18.6569278,36.6209618 20.061724,37.8 21,37.8 C21.938222,37.8 23.3429694,36.6209865 24.6680654,33.9709889 C26.316354,30.6744116 27.3,26.0236885 27.3,21 C27.3,15.9763901 26.3163557,11.3256944 24.6681012,8.02913523 C23.3429521,5.37908985 21.9381541,4.2 21,4.2 Z" id="Path"></path>
        </g>
    </g>
</svg>