<?xml version="1.0" encoding="UTF-8"?>
<svg width="48px" height="48px" viewBox="0 0 48 48" version="1.1" xmlns="http://www.w3.org/2000/svg" xmlns:xlink="http://www.w3.org/1999/xlink">
    <title>bio</title>
    <g id="bio" stroke="none" stroke-width="1" fill="none" fill-rule="evenodd">
        <g id="Group" transform="translate(1.6917, 2)" fill="#492620" fill-rule="nonzero">
            <path d="M20.9421227,0 L21.5196893,0.998873651 L27.3596893,11.0988737 L27.9385584,12.1 L27.3596893,13.1011263 L21.5196893,23.2011263 L20.9421227,24.2 L6.97247525,24.2 L6.39540415,23.1985536 L0.575404146,13.0985536 L0,12.1 L0.575404146,11.1014464 L6.39540415,1.00144641 L6.97247525,0 L20.9421227,0 Z M18.6342892,4 L9.28228924,4 L4.61628924,12.098 L9.28428924,20.2 L18.6342892,20.2 L23.3182892,12.1 L18.6342892,4 Z" id="Path"></path>
            <path d="M38.4445044,10.10058 L39.0215752,11.1020279 L44.8415752,21.2020479 L45.4169779,22.200601 L44.8415743,23.1991536 L39.0215743,33.2991536 L38.4445032,34.3006 L24.4748558,34.3006 L23.8972892,33.3017263 L18.0572892,23.2017263 L17.4784207,22.200601 L18.0572884,21.1994751 L23.8972884,11.0994551 L24.4748546,10.10058 L38.4445044,10.10058 Z M36.1326892,14.10058 L26.7806892,14.10058 L22.0966892,22.19858 L26.7806892,30.30058 L36.1306892,30.30058 L40.7986892,22.20058 L36.1326892,14.10058 Z" id="Path"></path>
            <path d="M20.9421227,20.2002 L21.5196893,21.1990737 L27.3596893,31.2990737 L27.9385584,32.3002 L27.3596893,33.3013263 L21.5196893,43.4013263 L20.9421227,44.4002 L6.97247525,44.4002 L6.39540415,43.3987536 L0.575404146,33.2987536 L0,32.3002 L0.575404146,31.3016464 L6.39540415,21.2016464 L6.97247525,20.2002 L20.9421227,20.2002 Z M18.6342892,24.2002 L9.28228924,24.2002 L4.61628924,32.2982 L9.28428924,40.4002 L18.6342892,40.4002 L23.3182892,32.3002 L18.6342892,24.2002 Z" id="Path"></path>
        </g>
    </g>
</svg>