<?xml version="1.0" encoding="UTF-8"?>
<svg width="48px" height="48px" viewBox="0 0 48 48" version="1.1" xmlns="http://www.w3.org/2000/svg" xmlns:xlink="http://www.w3.org/1999/xlink">
    <title>chladenie</title>
    <g id="chladenie" stroke="none" stroke-width="1" fill="none" fill-rule="evenodd">
        <g id="Group" transform="translate(1.4408, 2)" fill="#3C433E" fill-rule="nonzero">
            <path d="M43.36,3.8 L2.14,3.8 C1.1,3.8 0.24,2.96 0.24,1.9 C0.24,0.84 1.08,0 2.14,0 L43.36,0 C44.4,0 45.26,0.84 45.26,1.9 C45.26,2.96 44.42,3.8 43.36,3.8 Z" id="Path"></path>
            <path d="M2,21.24 C0.9,21.24 0,20.34 0,19.24 C0,15.66002 1.4,13.74002 2.52,12.20002 C3.54,10.80002 4.28,9.80002 4.28,7.52002 C4.28,6.42002 5.18,5.52002 6.28,5.52002 C7.38,5.52002 8.28,6.42002 8.28,7.52002 C8.28,11.10002 6.88,13.02002 5.76,14.56002 C4.78,15.90002 4,16.96002 4,19.24 C4,20.34 3.1,21.24 2,21.24 Z" id="Path"></path>
            <path d="M11.3,21.24 C10.2,21.24 9.3,20.34 9.3,19.24 C9.3,15.66002 10.7,13.74002 11.82,12.20002 C12.84,10.80002 13.58,9.80002 13.58,7.52002 C13.58,6.42002 14.48,5.52002 15.58,5.52002 C16.68,5.52002 17.58,6.42002 17.58,7.52002 C17.58,11.10002 16.18,13.02002 15.06,14.56002 C14.08,15.90002 13.3,16.96002 13.3,19.24 C13.3,20.34 12.4,21.24 11.3,21.24 Z" id="Path"></path>
            <path d="M20.62,21.24 C19.52,21.24 18.62,20.34 18.62,19.24 C18.62,15.66002 20.02,13.74002 21.14,12.20002 C22.16,10.80002 22.9,9.80002 22.9,7.52002 C22.9,6.42002 23.8,5.52002 24.9,5.52002 C26,5.52002 26.9,6.42002 26.9,7.52002 C26.9,11.10002 25.5,13.02002 24.38,14.56002 C23.4,15.90002 22.62,16.96002 22.62,19.24 C22.62,20.34 21.72,21.24 20.62,21.24 Z" id="Path"></path>
            <path d="M29.92,21.24 C28.82,21.24 27.92,20.34 27.92,19.24 C27.92,15.66002 29.32,13.74002 30.44,12.20002 C31.46,10.80002 32.2,9.80002 32.2,7.52002 C32.2,6.42002 33.1,5.52002 34.2,5.52002 C35.3,5.52002 36.2,6.42002 36.2,7.52002 C36.2,11.10002 34.8,13.02002 33.68,14.56002 C32.7,15.90002 31.92,16.96002 31.92,19.24 C31.92,20.34 31.02,21.24 29.92,21.24 Z" id="Path"></path>
            <path d="M39.24,21.24 C38.14,21.24 37.24,20.34 37.24,19.24 C37.24,15.66002 38.64,13.74002 39.76,12.20002 C40.78,10.80002 41.52,9.80002 41.52,7.52002 C41.52,6.42002 42.42,5.52002 43.52,5.52002 C44.62,5.52002 45.52,6.42002 45.52,7.52002 C45.52,11.10002 44.12,13.02002 43,14.56002 C42.02,15.90002 41.24,16.96002 41.24,19.24 C41.24,20.34 40.34,21.24 39.24,21.24 Z" id="Path"></path>
            <path d="M43.36,45.0202 L2.14,45.0202 C1.1,45.0202 0.24,44.1802 0.24,43.1202 C0.24,42.0602 1.08,41.2202 2.14,41.2202 L43.36,41.2202 C44.4,41.2202 45.26,42.0602 45.26,43.1202 C45.26,44.1802 44.42,45.0202 43.36,45.0202 Z" id="Path"></path>
            <path d="M39.24,39.5198 C38.14,39.5198 37.24,38.6198 37.24,37.5198 C37.24,33.9398 38.64,32.0198 39.76,30.4798 C40.78,29.0798 41.52,28.0798 41.52,25.7998 C41.52,24.6998 42.42,23.7998 43.52,23.7998 C44.62,23.7998 45.52,24.6998 45.52,25.7998 C45.52,29.3798 44.12,31.2998 43,32.8398 C41.98,34.2398 41.24,35.2398 41.24,37.5198 C41.24,38.6198 40.34,39.5198 39.24,39.5198 Z" id="Path"></path>
            <path d="M29.92,39.5198 C28.82,39.5198 27.92,38.6198 27.92,37.5198 C27.92,33.9398 29.32,32.0198 30.44,30.4798 C31.46,29.0798 32.2,28.0798 32.2,25.7998 C32.2,24.6998 33.1,23.7998 34.2,23.7998 C35.3,23.7998 36.2,24.6998 36.2,25.7998 C36.2,29.3798 34.8,31.2998 33.68,32.8398 C32.66,34.2398 31.92,35.2398 31.92,37.5198 C31.92,38.6198 31.02,39.5198 29.92,39.5198 Z" id="Path"></path>
            <path d="M20.62,39.5198 C19.52,39.5198 18.62,38.6198 18.62,37.5198 C18.62,33.9398 20.02,32.0198 21.14,30.4798 C22.16,29.0798 22.9,28.0798 22.9,25.7998 C22.9,24.6998 23.8,23.7998 24.9,23.7998 C26,23.7998 26.9,24.6998 26.9,25.7998 C26.9,29.3798 25.5,31.2998 24.38,32.8398 C23.36,34.2398 22.62,35.2398 22.62,37.5198 C22.62,38.6198 21.72,39.5198 20.62,39.5198 Z" id="Path"></path>
            <path d="M11.3,39.5198 C10.2,39.5198 9.3,38.6198 9.3,37.5198 C9.3,33.9398 10.7,32.0198 11.82,30.4798 C12.84,29.0798 13.58,28.0798 13.58,25.7998 C13.58,24.6998 14.48,23.7998 15.58,23.7998 C16.68,23.7998 17.58,24.6998 17.58,25.7998 C17.58,29.3798 16.18,31.2998 15.06,32.8398 C14.04,34.2398 13.3,35.2398 13.3,37.5198 C13.3,38.6198 12.4,39.5198 11.3,39.5198 Z" id="Path"></path>
            <path d="M2,39.5198 C0.9,39.5198 0,38.6198 0,37.5198 C0,33.9398 1.4,32.0198 2.52,30.4798 C3.54,29.0798 4.28,28.0798 4.28,25.7998 C4.28,24.6998 5.18,23.7998 6.28,23.7998 C7.38,23.7998 8.28,24.6998 8.28,25.7998 C8.28,29.3798 6.88,31.2998 5.76,32.8398 C4.74,34.2398 4,35.2398 4,37.5198 C4,38.6198 3.1,39.5198 2,39.5198 Z" id="Path"></path>
        </g>
    </g>
</svg>