<?xml version="1.0" encoding="UTF-8"?>
<svg width="48px" height="48px" viewBox="0 0 48 48" version="1.1" xmlns="http://www.w3.org/2000/svg" xmlns:xlink="http://www.w3.org/1999/xlink">
    <title>chodci</title>
    <g id="chodci" stroke="none" stroke-width="1" fill="none" fill-rule="evenodd">
        <g id="Group" transform="translate(10.4544, 2)" fill="#C9CFCB" fill-rule="nonzero">
            <path d="M12.7455904,0 C15.9701599,0 18.5855904,2.6154305 18.5855904,5.84 C18.5855904,9.06603996 15.9706898,11.68 12.7455904,11.68 C9.52049108,11.68 6.90559043,9.06603996 6.90559043,5.84 C6.90559043,2.6154305 9.52102093,0 12.7455904,0 Z M12.7455904,4 C11.7301599,4 10.9055904,4.8245695 10.9055904,5.84 C10.9055904,6.85657874 11.729308,7.68 12.7455904,7.68 C13.7618729,7.68 14.5855904,6.85657874 14.5855904,5.84 C14.5855904,4.8245695 13.7610209,4 12.7455904,4 Z" id="Path"></path>
            <polygon id="Path" points="20.2482094 18.430938 25.9482094 23.070938 23.4229715 26.173062 17.7229715 21.533062"></polygon>
            <polygon id="Path" points="14.5055904 14.102 14.5035904 24.526 21.5583895 30.8308103 21.9035779 31.1393336 22.0780812 31.5681579 26.5380812 42.5281579 22.8330996 44.0358421 18.5455904 33.504 11.1727914 26.9131897 10.5055904 26.3168572 10.5035904 18.102 6.41559043 18.102 3.69118086 24.6325816 0 23.0914184 3.24 15.3314184 3.75331388 14.102"></polygon>
            <polygon id="Path" points="9.62822746 30.7990765 12.6629534 33.4049235 3.06295341 44.5849235 0.0282274575 41.9790765"></polygon>
        </g>
    </g>
</svg>