<?xml version="1.0" encoding="UTF-8"?>
<svg width="48px" height="48px" viewBox="0 0 48 48" version="1.1" xmlns="http://www.w3.org/2000/svg" xmlns:xlink="http://www.w3.org/1999/xlink">
    <title>coffe</title>
    <g id="coffe" stroke="none" stroke-width="1" fill="none" fill-rule="evenodd">
        <g id="Group-2" transform="translate(4, 3)" fill="#1D1D1B" fill-rule="nonzero">
            <polygon id="Path" points="0 42 40 42 40 37.9518072 0 37.9518072"></polygon>
            <path d="M32.44,7.99507952 C36.3988716,7.99507952 39.6,11.2434613 39.6,15.2413446 C39.6,19.2479928 36.3903109,22.4877108 32.44,22.4877108 L28.26,22.4877108 L28.26,18.4395181 L32.44,18.4395181 C34.1835538,18.4395181 35.6,17.00982 35.6,15.2413446 C35.6,13.4767937 34.1873316,12.0432723 32.44,12.0432723 L29.42,12.0432723 L29.42,7.99507952 L32.44,7.99507952 Z" id="Path"></path>
            <path d="M31.66,7.99507952 L31.66,19.593253 C31.66,27.6942631 25.1645695,34.2679518 17.16,34.2679518 C9.1554305,34.2679518 2.66,27.6942631 2.66,19.593253 L2.66,7.99507952 L4.66,7.99507952 L31.66,7.99507952 Z M27.66,12.0432723 L6.66,12.0432723 L6.66,19.593253 C6.66,25.3118766 11.1322814,29.9810065 16.7274445,30.2108888 L17.16,30.219759 C22.9554305,30.219759 27.66,25.458508 27.66,19.593253 L27.66,12.0432723 Z" id="Path"></path>
            <polygon id="Path" points="8.78 4.04819277 25.1 4.04819277 25.1 0 8.78 0"></polygon>
        </g>
    </g>
</svg>