<?xml version="1.0" encoding="UTF-8"?>
<svg width="48px" height="48px" viewBox="0 0 48 48" version="1.1" xmlns="http://www.w3.org/2000/svg" xmlns:xlink="http://www.w3.org/1999/xlink">
    <title>downtown</title>
    <g id="downtown" stroke="none" stroke-width="1" fill="none" fill-rule="evenodd">
        <g id="Group" transform="translate(-0.3636, 10.1411)" fill="#60635E" fill-rule="nonzero">
            <polygon id="Path" points="30.4589091 26.6392727 30.4589091 22.9083636 30.4589091 21.8872727 25.5541818 21.8872727 20.808 21.8872727 20.808 28.3636364 21.0385455 28.3636364 30.4589091 28.3636364 30.4589091 27.0821818"></polygon>
            <polygon id="Path" points="32.8843636 19.4843636 31.1789091 19.4843636 31.1789091 28.3636364 32.8843636 28.3636364"></polygon>
            <polygon id="Path" points="31.1781818 19.4843636 20.808 19.4843636 20.808 21.1767273 31.1781818 21.1767273"></polygon>
            <path d="M33.5992727,19.4843636 L36.176,19.4843636 C36.4494545,19.4843636 36.672,19.7054545 36.672,19.9767273 L36.672,22.1730909 C36.672,22.4443636 36.4494545,22.6654545 36.176,22.6654545 L33.5992727,22.6654545 L33.5992727,19.4843636 Z" id="Path"></path>
            <path d="M33.5992727,23.3796364 L36.176,23.3796364 C36.4494545,23.3796364 36.672,23.6007273 36.672,23.872 L36.672,26.0683636 C36.672,26.3396364 36.4494545,26.5607273 36.176,26.5607273 L33.5992727,26.5607273 L33.5992727,23.3796364 Z" id="Path"></path>
            <path d="M33.5992727,27.2749091 L36.176,27.2749091 C36.4494545,27.2749091 36.672,27.496 36.672,27.7672727 L36.672,28.36 L33.5992727,28.36 L33.5992727,27.2749091 Z" id="Path"></path>
            <path d="M30.5127273,11.6901818 L36.176,11.6901818 C36.4494545,11.6901818 36.6727273,11.9112727 36.6727273,12.1825455 L36.6727273,14.3781818 C36.6727273,14.6494545 36.4494545,14.8712727 36.176,14.8712727 L30.5127273,14.8712727 L30.5127273,11.6901818 Z" id="Path"></path>
            <path d="M33.7185455,0 L36.6727273,0 L36.6727273,2.68872727 C36.6727273,2.96 36.4494545,3.18181818 36.176,3.18181818 L30.5127273,3.18181818 C30.5127273,1.42472727 31.9483636,0 33.7185455,0 Z" id="Path"></path>
            <path d="M30.5127273,15.5854545 L36.176,15.5854545 C36.4494545,15.5854545 36.6727273,15.8065455 36.6727273,16.0778182 L36.6727273,18.2734545 C36.6727273,18.5447273 36.4494545,18.7665455 36.176,18.7665455 L30.5127273,18.7665455 L30.5127273,15.5854545 Z" id="Path"></path>
            <path d="M30.5127273,7.79490909 L36.176,7.79490909 C36.4494545,7.79490909 36.6727273,8.016 36.6727273,8.28727273 L36.6727273,10.4829091 C36.6727273,10.7541818 36.4494545,10.976 36.176,10.976 L30.5127273,10.976 L30.5127273,7.79490909 Z" id="Path"></path>
            <path d="M30.5127273,3.89527273 L36.176,3.89527273 C36.4494545,3.89527273 36.6727273,4.11709091 36.6727273,4.38836364 L36.6727273,6.584 C36.6727273,6.85527273 36.4494545,7.07709091 36.176,7.07709091 L30.5127273,7.07709091 L30.5127273,3.89527273 Z" id="Path"></path>
            <path d="M11.3265455,19.4843636 L16.9905455,19.4843636 C17.264,19.4843636 17.4865455,19.7054545 17.4865455,19.9767273 L17.4865455,22.1730909 C17.4865455,22.4443636 17.264,22.6654545 16.9905455,22.6654545 L11.3265455,22.6654545 L11.3265455,19.4843636 Z" id="Path"></path>
            <path d="M11.3265455,23.3796364 L16.9905455,23.3796364 C17.264,23.3796364 17.4865455,23.6007273 17.4865455,23.872 L17.4865455,26.0683636 C17.4865455,26.3396364 17.264,26.5607273 16.9905455,26.5607273 L11.3265455,26.5607273 L11.3265455,23.3796364 Z" id="Path"></path>
            <path d="M11.3265455,27.2749091 L16.9905455,27.2749091 C17.264,27.2749091 17.4865455,27.496 17.4865455,27.7672727 L17.4865455,28.36 L11.3265455,28.36 L11.3265455,27.2749091 Z" id="Path"></path>
            <path d="M11.3265455,11.6901818 L16.9905455,11.6901818 C17.264,11.6901818 17.4865455,11.9112727 17.4865455,12.1825455 L17.4865455,14.3781818 C17.4865455,14.6494545 17.264,14.8712727 16.9905455,14.8712727 L11.3265455,14.8712727 L11.3265455,11.6901818 Z" id="Path"></path>
            <path d="M18.704,11.6901818 L21.9352727,11.6901818 L21.9352727,14.8712727 L18.704,14.8712727 C18.4305455,14.8712727 18.2072727,14.6494545 18.2072727,14.3781818 L18.2072727,12.1825455 C18.2072727,11.9112727 18.4305455,11.6901818 18.704,11.6901818 Z" id="Path"></path>
            <path d="M18.704,27.2749091 L20.0712727,27.2749091 L20.0712727,28.36 L18.2072727,28.36 L18.2072727,27.7672727 C18.2072727,27.496 18.4305455,27.2749091 18.704,27.2749091 Z" id="Path"></path>
            <path d="M14.5323636,0 L17.4865455,0 L17.4865455,2.68872727 C17.4865455,2.96 17.264,3.18181818 16.9905455,3.18181818 L11.3265455,3.18181818 C11.3265455,1.42472727 12.7621818,0 14.5323636,0 Z" id="Path"></path>
            <path d="M18.2072727,0 L18.7294545,0 C20.4996364,0 21.9352727,1.42472727 21.9352727,3.18181818 L18.704,3.18181818 C18.4305455,3.18181818 18.2072727,2.96 18.2072727,2.68872727 L18.2072727,0 Z" id="Path"></path>
            <path d="M11.3265455,15.5854545 L16.9905455,15.5854545 C17.264,15.5854545 17.4865455,15.8065455 17.4865455,16.0778182 L17.4865455,18.2734545 C17.4865455,18.5447273 17.264,18.7665455 16.9905455,18.7665455 L11.3265455,18.7665455 L11.3265455,15.5854545 Z" id="Path"></path>
            <path d="M18.704,15.5854545 L21.9352727,15.5854545 L21.9352727,18.7665455 L18.704,18.7665455 C18.4305455,18.7665455 18.2072727,18.5447273 18.2072727,18.2734545 L18.2072727,16.0778182 C18.2072727,15.8065455 18.4305455,15.5854545 18.704,15.5854545 Z" id="Path"></path>
            <path d="M11.3265455,7.79490909 L16.9905455,7.79490909 C17.264,7.79490909 17.4865455,8.016 17.4865455,8.28727273 L17.4865455,10.4829091 C17.4865455,10.7541818 17.264,10.976 16.9905455,10.976 L11.3265455,10.976 L11.3265455,7.79490909 Z" id="Path"></path>
            <path d="M18.704,7.79490909 L21.9352727,7.79490909 L21.9352727,10.976 L18.704,10.976 C18.4305455,10.976 18.2072727,10.7541818 18.2072727,10.4829091 L18.2072727,8.28727273 C18.2072727,8.016 18.4305455,7.79490909 18.704,7.79490909 Z" id="Path"></path>
            <path d="M11.3265455,3.89527273 L16.9905455,3.89527273 C17.264,3.89527273 17.4865455,4.11709091 17.4865455,4.38836364 L17.4865455,6.584 C17.4865455,6.85527273 17.264,7.07709091 16.9905455,7.07709091 L11.3265455,7.07709091 L11.3265455,3.89527273 Z" id="Path"></path>
            <path d="M18.704,3.89527273 L21.9352727,3.89527273 L21.9352727,7.07709091 L18.704,7.07709091 C18.4305455,7.07709091 18.2072727,6.85527273 18.2072727,6.584 L18.2072727,4.38836364 C18.2072727,4.11709091 18.4305455,3.89527273 18.704,3.89527273 Z" id="Path"></path>
            <path d="M18.704,19.4843636 L20.0712727,19.4843636 L20.0712727,22.6654545 L18.704,22.6654545 C18.4305455,22.6654545 18.2072727,22.4443636 18.2072727,22.1730909 L18.2072727,19.9767273 C18.2072727,19.7054545 18.4305455,19.4843636 18.704,19.4843636 Z" id="Path"></path>
            <path d="M18.704,23.3796364 L20.0712727,23.3796364 L20.0712727,26.5607273 L18.704,26.5607273 C18.4305455,26.5607273 18.2072727,26.3396364 18.2072727,26.0683636 L18.2072727,23.872 C18.2072727,23.6007273 18.4305455,23.3796364 18.704,23.3796364 Z" id="Path"></path>
            <path d="M38.3061818,0.0254545455 C38.1767273,0.0109090909 38.0472727,0 37.9134545,0 L37.392,0 L37.392,0.942545455 C37.6436364,0.589090909 37.9534545,0.282181818 38.3061818,0.0290909091 L38.3061818,0.0254545455 Z" id="Path"></path>
            <path d="M0,19.4843636 L5.66327273,19.4843636 C5.93672727,19.4843636 6.16,19.7054545 6.16,19.9767273 L6.16,22.1730909 C6.16,22.4443636 5.93672727,22.6654545 5.66327273,22.6654545 L0,22.6654545 L0,19.4843636 Z" id="Path"></path>
            <path d="M0,23.3796364 L5.66327273,23.3796364 C5.93672727,23.3796364 6.16,23.6007273 6.16,23.872 L6.16,26.0683636 C6.16,26.3396364 5.93672727,26.5607273 5.66327273,26.5607273 L0,26.5607273 L0,23.3796364 Z" id="Path"></path>
            <path d="M0,27.2749091 L5.66327273,27.2749091 C5.93672727,27.2749091 6.16,27.496 6.16,27.7672727 L6.16,28.36 L0,28.36 L0,27.2749091 Z" id="Path"></path>
            <path d="M0,11.6901818 L5.66327273,11.6901818 C5.93672727,11.6901818 6.16,11.9112727 6.16,12.1825455 L6.16,14.3781818 C6.16,14.6494545 5.93672727,14.8712727 5.66327273,14.8712727 L0,14.8712727 L0,11.6901818 Z" id="Path"></path>
            <path d="M7.376,11.6901818 L10.6072727,11.6901818 L10.6072727,14.8712727 L7.376,14.8712727 C7.10254545,14.8712727 6.87927273,14.6494545 6.87927273,14.3781818 L6.87927273,12.1825455 C6.87927273,11.9112727 7.10254545,11.6901818 7.376,11.6901818 Z" id="Path"></path>
            <path d="M7.376,27.2749091 L10.6072727,27.2749091 L10.6072727,28.36 L6.87927273,28.36 L6.87927273,27.7672727 C6.87927273,27.496 7.10254545,27.2749091 7.376,27.2749091 Z" id="Path"></path>
            <path d="M3.20581818,0 L6.16,0 L6.16,2.68872727 C6.16,2.96 5.93672727,3.18181818 5.66327273,3.18181818 L0,3.18181818 C0,1.42472727 1.43563636,0 3.20581818,0 Z" id="Path"></path>
            <path d="M6.87927273,0 L7.40072727,0 C9.17163636,0 10.6072727,1.42472727 10.6072727,3.18181818 L7.376,3.18181818 C7.10254545,3.18181818 6.87927273,2.96 6.87927273,2.68872727 L6.87927273,0 Z" id="Path"></path>
            <path d="M0,15.5854545 L5.66327273,15.5854545 C5.93672727,15.5854545 6.16,15.8065455 6.16,16.0778182 L6.16,18.2734545 C6.16,18.5447273 5.93672727,18.7665455 5.66327273,18.7665455 L0,18.7665455 L0,15.5854545 Z" id="Path"></path>
            <path d="M7.376,15.5854545 L10.6072727,15.5854545 L10.6072727,18.7665455 L7.376,18.7665455 C7.10254545,18.7665455 6.87927273,18.5447273 6.87927273,18.2734545 L6.87927273,16.0778182 C6.87927273,15.8065455 7.10254545,15.5854545 7.376,15.5854545 Z" id="Path"></path>
            <path d="M0,7.79490909 L5.66327273,7.79490909 C5.93672727,7.79490909 6.16,8.016 6.16,8.28727273 L6.16,10.4829091 C6.16,10.7541818 5.93672727,10.976 5.66327273,10.976 L0,10.976 L0,7.79490909 Z" id="Path"></path>
            <path d="M7.376,7.79490909 L10.6072727,7.79490909 L10.6072727,10.976 L7.376,10.976 C7.10254545,10.976 6.87927273,10.7541818 6.87927273,10.4829091 L6.87927273,8.28727273 C6.87927273,8.016 7.10254545,7.79490909 7.376,7.79490909 Z" id="Path"></path>
            <path d="M0,3.89527273 L5.66327273,3.89527273 C5.93672727,3.89527273 6.16,4.11709091 6.16,4.38836364 L6.16,6.584 C6.16,6.85527273 5.93672727,7.07709091 5.66327273,7.07709091 L0,7.07709091 L0,3.89527273 Z" id="Path"></path>
            <path d="M7.376,3.89527273 L10.6072727,3.89527273 L10.6072727,7.07709091 L7.376,7.07709091 C7.10254545,7.07709091 6.87927273,6.85527273 6.87927273,6.584 L6.87927273,4.38836364 C6.87927273,4.11709091 7.10254545,3.89527273 7.376,3.89527273 Z" id="Path"></path>
            <path d="M7.376,19.4843636 L10.6072727,19.4843636 L10.6072727,22.6654545 L7.376,22.6654545 C7.10254545,22.6654545 6.87927273,22.4443636 6.87927273,22.1730909 L6.87927273,19.9767273 C6.87927273,19.7054545 7.10254545,19.4843636 7.376,19.4843636 Z" id="Path"></path>
            <path d="M7.376,23.3796364 L10.6072727,23.3796364 L10.6072727,26.5607273 L7.376,26.5607273 C7.10254545,26.5607273 6.87927273,26.3396364 6.87927273,26.0683636 L6.87927273,23.872 C6.87927273,23.6007273 7.10254545,23.3796364 7.376,23.3796364 Z" id="Path"></path>
            <path d="M37.392,19.4843636 L43.0552727,19.4843636 C43.3287273,19.4843636 43.552,19.7054545 43.552,19.9767273 L43.552,22.1730909 C43.552,22.4443636 43.3287273,22.6654545 43.0552727,22.6654545 L37.392,22.6654545 L37.392,19.4843636 Z" id="Path"></path>
            <path d="M37.392,23.3796364 L43.0552727,23.3796364 C43.3287273,23.3796364 43.552,23.6007273 43.552,23.872 L43.552,26.0683636 C43.552,26.3396364 43.3287273,26.5607273 43.0552727,26.5607273 L37.392,26.5607273 L37.392,23.3796364 Z" id="Path"></path>
            <path d="M37.392,27.2749091 L43.0552727,27.2749091 C43.3287273,27.2749091 43.552,27.496 43.552,27.7672727 L43.552,28.36 L37.392,28.36 L37.392,27.2749091 Z" id="Path"></path>
            <path d="M37.392,11.6901818 L43.0552727,11.6901818 C43.3287273,11.6901818 43.552,11.9112727 43.552,12.1825455 L43.552,14.3781818 C43.552,14.6494545 43.3287273,14.8712727 43.0552727,14.8712727 L37.392,14.8712727 L37.392,11.6901818 Z" id="Path"></path>
            <path d="M44.7694545,11.6901818 L48.0007273,11.6901818 L48.0007273,14.8712727 L44.7694545,14.8712727 C44.496,14.8712727 44.2727273,14.6494545 44.2727273,14.3781818 L44.2727273,12.1825455 C44.2727273,11.9112727 44.496,11.6901818 44.7694545,11.6901818 Z" id="Path"></path>
            <path d="M44.7694545,27.2749091 L48.0007273,27.2749091 L48.0007273,28.36 L44.2727273,28.36 L44.2727273,27.7672727 C44.2727273,27.496 44.496,27.2749091 44.7694545,27.2749091 Z" id="Path"></path>
            <path d="M44.2727273,0 L44.7941818,0 C46.5614545,0 48.0007273,1.42472727 48.0007273,3.18181818 L44.7694545,3.18181818 C44.496,3.18181818 44.2727273,2.96 44.2727273,2.68872727 L44.2727273,0 Z" id="Path"></path>
            <path d="M37.392,15.5854545 L43.0552727,15.5854545 C43.3287273,15.5854545 43.552,15.8065455 43.552,16.0778182 L43.552,18.2734545 C43.552,18.5447273 43.3287273,18.7665455 43.0552727,18.7665455 L37.392,18.7665455 L37.392,15.5854545 Z" id="Path"></path>
            <path d="M44.7694545,15.5854545 L48.0007273,15.5854545 L48.0007273,18.7665455 L44.7694545,18.7665455 C44.496,18.7665455 44.2727273,18.5447273 44.2727273,18.2734545 L44.2727273,16.0778182 C44.2727273,15.8065455 44.496,15.5854545 44.7694545,15.5854545 Z" id="Path"></path>
            <path d="M37.392,7.79490909 L43.0552727,7.79490909 C43.3287273,7.79490909 43.552,8.016 43.552,8.28727273 L43.552,10.4829091 C43.552,10.7541818 43.3287273,10.976 43.0552727,10.976 L37.392,10.976 L37.392,7.79490909 Z" id="Path"></path>
            <path d="M44.7694545,7.79490909 L48.0007273,7.79490909 L48.0007273,10.976 L44.7694545,10.976 C44.496,10.976 44.2727273,10.7541818 44.2727273,10.4829091 L44.2727273,8.28727273 C44.2727273,8.016 44.496,7.79490909 44.7694545,7.79490909 Z" id="Path"></path>
            <path d="M37.392,3.89527273 L43.0552727,3.89527273 C43.3287273,3.89527273 43.552,4.11709091 43.552,4.38836364 L43.552,6.584 C43.552,6.85527273 43.3287273,7.07709091 43.0552727,7.07709091 L37.392,7.07709091 L37.392,3.89527273 Z" id="Path"></path>
            <path d="M44.7694545,3.89527273 L48.0007273,3.89527273 L48.0007273,7.07709091 L44.7694545,7.07709091 C44.496,7.07709091 44.2727273,6.85527273 44.2727273,6.584 L44.2727273,4.38836364 C44.2727273,4.11709091 44.496,3.89527273 44.7694545,3.89527273 Z" id="Path"></path>
            <path d="M44.7694545,19.4843636 L48.0007273,19.4843636 L48.0007273,22.6654545 L44.7694545,22.6654545 C44.496,22.6654545 44.2727273,22.4443636 44.2727273,22.1730909 L44.2727273,19.9767273 C44.2727273,19.7054545 44.496,19.4843636 44.7694545,19.4843636 Z" id="Path"></path>
            <path d="M44.7694545,23.3796364 L48.0007273,23.3796364 L48.0007273,26.5607273 L44.7694545,26.5607273 C44.496,26.5607273 44.2727273,26.3396364 44.2727273,26.0683636 L44.2727273,23.872 C44.2727273,23.6007273 44.496,23.3796364 44.7694545,23.3796364 Z" id="Path"></path>
            <path d="M39.256,0.296727273 C38.2589091,0.753454545 37.5396364,1.69963636 37.4138182,2.82836364 C37.3992727,2.94618182 37.392,3.064 37.392,3.18472727 L43.0552727,3.18472727 C43.3287273,3.18472727 43.552,2.96363636 43.552,2.69236364 L43.552,0 L40.5978182,0 C40.1192727,0 39.6625455,0.107636364 39.256,0.296727273 Z" id="Path"></path>
        </g>
    </g>
</svg>