<?xml version="1.0" encoding="UTF-8"?>
<svg width="48px" height="48px" viewBox="0 0 48 48" version="1.1" xmlns="http://www.w3.org/2000/svg" xmlns:xlink="http://www.w3.org/1999/xlink">
    <title>energie</title>
    <g id="energie" stroke="none" stroke-width="1" fill="none" fill-rule="evenodd">
        <g id="Group" transform="translate(1.8808, 2.1001)" fill="#3C433E" fill-rule="nonzero">
            <path d="M1.88,44.839902 C0.84,44.839902 0,44.000102 0,42.960102 C0,39.059902 1.12,37.019902 2.1,35.219902 C2.98,33.620102 3.74,32.219902 3.74,29.279902 C3.74,26.339902 2.98,24.939902 2.1,23.339902 C1.12,21.539902 0,19.499902 0,15.580002 C0,11.660002 1.12,9.640002 2.1,7.820002 C2.98,6.200002 3.74,4.820002 3.74,1.880002 C3.74,0.840002 4.58,8.8817842e-16 5.62,8.8817842e-16 C6.66,8.8817842e-16 7.5,0.840002 7.5,1.880002 C7.5,5.780002 6.38,7.820002 5.4,9.640002 C4.52,11.260002 3.76,12.640002 3.76,15.580002 C3.76,18.519902 4.52,19.919902 5.4,21.519902 C6.38,23.319902 7.5,25.359902 7.5,29.279902 C7.5,33.199902 6.38,35.219902 5.4,37.019902 C4.52,38.639902 3.76,40.020102 3.76,42.960102 C3.76,44.000102 2.92,44.839902 1.88,44.839902 Z" id="Path"></path>
            <path d="M11.16,44.839902 C10.12,44.839902 9.28,44.000102 9.28,42.960102 C9.28,39.059902 10.4,37.019902 11.38,35.219902 C12.26,33.620102 13.02,32.219902 13.02,29.279902 C13.02,26.339902 12.26,24.939902 11.38,23.339902 C10.4,21.539902 9.28,19.499902 9.28,15.580002 C9.28,11.660002 10.4,9.640002 11.38,7.820002 C12.26,6.200002 13.02,4.820002 13.02,1.880002 C13.02,0.840002 13.86,8.8817842e-16 14.9,8.8817842e-16 C15.94,8.8817842e-16 16.78,0.840002 16.78,1.880002 C16.78,5.780002 15.66,7.820002 14.68,9.640002 C13.8,11.260002 13.04,12.640002 13.04,15.580002 C13.04,18.519902 13.8,19.919902 14.68,21.519902 C15.66,23.319902 16.78,25.359902 16.78,29.279902 C16.78,33.199902 15.66,35.219902 14.68,37.019902 C13.8,38.619902 13.04,40.020102 13.04,42.960102 C13.04,44.000102 12.2,44.839902 11.16,44.839902 Z" id="Path"></path>
            <path d="M20.44,44.839902 C19.4,44.839902 18.56,44.000102 18.56,42.960102 C18.56,39.059902 19.68,37.019902 20.66,35.219902 C21.54,33.620102 22.3,32.219902 22.3,29.279902 C22.3,26.339902 21.54,24.939902 20.66,23.339902 C19.68,21.539902 18.56,19.499902 18.56,15.580002 C18.56,11.660002 19.68,9.640002 20.66,7.820002 C21.54,6.200002 22.3,4.820002 22.3,1.880002 C22.3,0.840002 23.14,8.8817842e-16 24.18,8.8817842e-16 C25.22,8.8817842e-16 26.06,0.840002 26.06,1.880002 C26.06,5.780002 24.94,7.820002 23.96,9.640002 C23.08,11.260002 22.32,12.640002 22.32,15.580002 C22.32,18.519902 23.08,19.919902 23.96,21.519902 C24.94,23.319902 26.06,25.359902 26.06,29.279902 C26.06,33.199902 24.94,35.219902 23.96,37.019902 C23.08,38.639902 22.32,40.020102 22.32,42.960102 C22.32,44.000102 21.48,44.839902 20.44,44.839902 Z" id="Path"></path>
            <path d="M29.72,44.839902 C28.68,44.839902 27.84,44.000102 27.84,42.960102 C27.84,39.059902 28.96,37.019902 29.94,35.219902 C30.82,33.620102 31.58,32.219902 31.58,29.279902 C31.58,26.339902 30.82,24.939902 29.94,23.339902 C28.96,21.539902 27.84,19.499902 27.84,15.580002 C27.84,11.660002 28.96,9.640002 29.94,7.820002 C30.82,6.200002 31.58,4.820002 31.58,1.880002 C31.58,0.840002 32.42,8.8817842e-16 33.46,8.8817842e-16 C34.5,8.8817842e-16 35.34,0.840002 35.34,1.880002 C35.34,5.780002 34.22,7.820002 33.24,9.640002 C32.36,11.260002 31.6,12.640002 31.6,15.580002 C31.6,18.519902 32.36,19.919902 33.24,21.519902 C34.22,23.319902 35.34,25.359902 35.34,29.279902 C35.34,33.199902 34.22,35.219902 33.24,37.019902 C32.36,38.639902 31.6,40.020102 31.6,42.960102 C31.6,44.000102 30.76,44.839902 29.72,44.839902 Z" id="Path"></path>
            <path d="M39,44.839902 C37.96,44.839902 37.12,44.000102 37.12,42.960102 C37.12,39.059902 38.24,37.019902 39.22,35.219902 C40.1,33.620102 40.86,32.219902 40.86,29.279902 C40.86,26.339902 40.1,24.939902 39.22,23.339902 C38.24,21.539902 37.12,19.499902 37.12,15.580002 C37.12,11.660002 38.24,9.640002 39.22,7.820002 C40.1,6.200002 40.86,4.820002 40.86,1.880002 C40.86,0.840002 41.7,8.8817842e-16 42.74,8.8817842e-16 C43.78,8.8817842e-16 44.62,0.840002 44.62,1.880002 C44.62,5.780002 43.5,7.820002 42.52,9.640002 C41.64,11.260002 40.88,12.640002 40.88,15.580002 C40.88,18.519902 41.64,19.919902 42.52,21.519902 C43.5,23.319902 44.62,25.359902 44.62,29.279902 C44.62,33.199902 43.5,35.219902 42.52,37.019902 C41.64,38.619902 40.88,40.020102 40.88,42.960102 C40.88,44.000102 40.04,44.839902 39,44.839902 Z" id="Path"></path>
        </g>
    </g>
</svg>