<?xml version="1.0" encoding="UTF-8"?>
<svg width="48px" height="48px" viewBox="0 0 48 48" version="1.1" xmlns="http://www.w3.org/2000/svg" xmlns:xlink="http://www.w3.org/1999/xlink">
    <title>garaz</title>
    <g id="garaz" stroke="none" stroke-width="1" fill="none" fill-rule="evenodd">
        <path d="M2.960982,23.5802 C2.960982,34.1402 4.300982,34.9602 17.160982,42.8002 C18.920982,43.8802 20.920982,45.1002 23.200982,46.5202 L24.320982,47.2202 L25.440982,46.5202 C27.760982,45.0802 29.800982,43.8202 31.600982,42.7202 C44.620982,34.7602 45.680982,34.1202 45.680982,23.5602 L45.680982,2.180176 L2.960982,2.180176 L2.960982,23.5802 Z M7.160982,6.40018 L41.420982,6.40018 L41.420982,27.5 C41.420982,32.9534 37.400982,34.2202 29.360982,39.1402 C27.840982,40.0602 26.160982,41.1002 24.280982,42.2602 C22.460982,41.1202 20.800982,40.1202 19.320982,39.2202 C11.200982,34.2602 7.140982,32.9666 7.140982,27.5 L7.140982,6.40018 L7.160982,6.40018 Z" id="Shape" fill="#1D1D1B" fill-rule="nonzero"></path>
    </g>
</svg>