<?xml version="1.0" encoding="UTF-8"?>
<svg width="48px" height="48px" viewBox="0 0 48 48" version="1.1" xmlns="http://www.w3.org/2000/svg" xmlns:xlink="http://www.w3.org/1999/xlink">
    <title>gara_full</title>
    <g id="gara_full" stroke="none" stroke-width="1" fill="none" fill-rule="evenodd">
        <g id="Group" transform="translate(2, 2)" fill="#3C433E" fill-rule="nonzero">
            <path d="M0,21.400024 C0,31.960024 1.34,32.780024 14.2,40.620024 C15.96,41.700024 17.96004,42.920024 20.24004,44.340024 L21.36004,45.040024 L22.48004,44.340024 C24.80004,42.900024 26.84004,41.640024 28.64004,40.540024 C41.66004,32.580024 42.72004,31.940024 42.72004,21.380024 L42.72004,0 L0,0 L0,21.400024 Z M4.2,4.220004 L38.46004,4.220004 L38.46004,25.319824 C38.46004,30.773224 34.44004,32.040024 26.40004,36.960024 C24.88004,37.880024 23.20004,38.920024 21.32004,40.080024 C19.50004,38.940024 17.84004,37.940024 16.36,37.040024 C8.24,32.080024 4.18,30.786424 4.18,25.319824 L4.18,4.220004 L4.2,4.220004 Z" id="Shape"></path>
            <path d="M12.05944,23.519624 L30.61944,23.519624 L30.61944,26.199624 L35.23944,26.199624 L35.23944,11.799604 L30.87944,10.759604 L28.89944,6.599604 L13.77944,6.599604 L11.79944,10.759604 L7.43944,11.799604 L7.43944,26.199624 L12.05944,26.199624 L12.05944,23.519624 Z M12.05944,15.459604 L15.03944,14.759604 L16.69944,11.239604 L25.97944,11.239604 L27.63944,14.759604 L30.61944,15.459604 L30.61944,18.879624 L12.05944,18.879624 L12.05944,15.459604 Z" id="Shape"></path>
        </g>
    </g>
</svg>