<?xml version="1.0" encoding="UTF-8"?>
<svg width="48px" height="48px" viewBox="0 0 48 48" version="1.1" xmlns="http://www.w3.org/2000/svg" xmlns:xlink="http://www.w3.org/1999/xlink">
    <title>instagram</title>
    <g id="instagram" stroke="none" stroke-width="1" fill-rule="evenodd">
        <path d="M23.762,15.9209895 C20.4943495,15.9209895 17.548453,17.8893852 16.2979773,20.9083005 C15.0475016,23.9272159 15.7387065,27.4021379 18.0492843,29.7127157 C20.3598621,32.0232935 23.8347841,32.7144984 26.8536995,31.4640227 C29.8726148,30.213547 31.8410105,27.2676505 31.8410105,24 C31.8444579,21.8562578 30.9943904,19.7993228 29.4785338,18.2834662 C27.9626772,16.7676096 25.9057422,15.9175421 23.762,15.9209895 Z M23.762,29.252 C20.8614005,29.252 18.51,26.9005995 18.51,24 C18.51,21.0994005 20.8614005,18.748 23.762,18.748 C26.6625995,18.748 29.014,21.0994005 29.014,24 C29.0084972,26.8983171 26.6603171,29.2464972 23.762,29.252 L23.762,29.252 Z M34.0560043,15.591 C34.0560043,16.6313743 33.2127074,17.4748157 32.1723332,17.4749997 C31.1319589,17.4751837 30.2883682,16.6320405 30.288,15.5916663 C30.287632,14.5512921 31.1306259,13.7075522 32.171,13.7069933 C32.6711667,13.7056686 33.1512459,13.9037013 33.5050123,14.2572799 C33.8587786,14.6108586 34.057066,15.0908327 34.0560043,15.591 Z M39.405,17.507 C39.4564045,15.0581339 38.5422231,12.6873688 36.86,10.907 C35.0760335,9.2304914 32.7076958,8.31724599 30.26,8.362 C27.66,8.214 19.86,8.214 17.26,8.362 C14.8130174,8.31386536 12.4442659,9.224758 10.66,10.9 C8.98064437,12.6821754 8.06693357,15.0517201 8.115,17.5 C7.967,20.1 7.967,27.9 8.115,30.5 C8.06359554,32.9488661 8.97777691,35.3196312 10.66,37.1 C12.444713,38.7753207 14.8125485,39.6883725 17.26,39.645 C19.86,39.793 27.66,39.793 30.26,39.645 C32.7088661,39.6964045 35.0796312,38.7822231 36.86,37.1 C38.5365086,35.3160335 39.449754,32.9476958 39.405,30.5 C39.553,27.9 39.553,20.108 39.405,17.506 L39.405,17.507 Z M36.046,33.288 C35.5054644,34.6608674 34.4188674,35.7474644 33.046,36.288 C30.972,37.111 26.046,36.921 23.758,36.921 C21.47,36.921 16.537,37.104 14.47,36.288 C13.0971326,35.7474644 12.0105356,34.6608674 11.47,33.288 C10.647,31.214 10.837,26.288 10.837,24 C10.837,21.712 10.654,16.779 11.47,14.712 C12.0105356,13.3391326 13.0971326,12.2525356 14.47,11.712 C16.544,10.889 21.47,11.079 23.758,11.079 C26.046,11.079 30.979,10.896 33.046,11.712 C34.4188674,12.2525356 35.5054644,13.3391326 36.046,14.712 C36.869,16.786 36.679,21.712 36.679,24 C36.679,26.288 36.868,31.221 36.046,33.288 Z" id="Icon_awesome-instagram" fill-rule="nonzero"></path>
    </g>
</svg>
