<?xml version="1.0" encoding="UTF-8"?>
<svg width="48px" height="48px" viewBox="0 0 48 48" version="1.1" xmlns="http://www.w3.org/2000/svg" xmlns:xlink="http://www.w3.org/1999/xlink">
    <title>linkedin</title>
    <g id="linkedin" stroke="none" stroke-width="1" fill="none" fill-rule="evenodd">
        <path d="M37.63264,8 L10.36032,8 C9.05824,8 8,9.03312 8,10.307616 L8,37.69152 C8,38.96528 9.05824,40 10.36032,40 L37.63264,40 C38.93696,40 40,38.96528 40,37.69088 L40,10.307616 C40,9.03312 38.93776,8 37.63264,8 Z M17.49248,35.26768 L12.74112,35.26768 L12.74112,19.996464 L17.49248,19.996464 L17.49248,35.26768 Z M15.11808,17.909776 C13.59344,17.909776 12.36448,16.67696 12.36448,15.157152 C12.36448,13.638128 13.59344,12.405312 15.11808,12.405312 C16.63632,12.405312 17.86912,13.638128 17.86912,15.157152 C17.86912,16.67696 16.63632,17.909776 15.11808,17.909776 Z M35.26912,35.26768 L30.5232,35.26768 L30.5232,27.8416 C30.5232,26.07088 30.49248,23.792432 28.05664,23.792432 C25.58704,23.792432 25.2104,25.72272 25.2104,27.71504 L25.2104,35.26768 L20.47008,35.26768 L20.47008,19.996464 L25.01936,19.996464 L25.01936,22.083936 L25.08464,22.083936 C25.7176,20.883344 27.26576,19.617488 29.57504,19.617488 C34.38064,19.617488 35.26912,22.77976 35.26912,26.89264 L35.26912,35.26768 Z" id="Shape" fill="#000000" fill-rule="nonzero"></path>
    </g>
</svg>