<?xml version="1.0" encoding="UTF-8"?>
<svg width="48px" height="48px" viewBox="0 0 48 48" version="1.1" xmlns="http://www.w3.org/2000/svg" xmlns:xlink="http://www.w3.org/1999/xlink">
    <title>mute</title>
    <g id="mute" stroke="none" stroke-width="1" fill="none" fill-rule="evenodd">
        <g id="Group" transform="translate(4, 10)" fill="#D8D8D8" fill-rule="nonzero">
            <path d="M16.9129168,0.299376471 C17.80776,-0.410173602 19.1333333,0.221301276 19.1333333,1.35713559 L19.1333333,26.6428644 C19.1333333,27.7786987 17.80776,28.4101736 16.9129168,27.7006235 L8.17631111,20.7729631 L1.36666667,20.7729631 C0.674776605,20.7729631 0.102972027,20.2633583 0.0124760558,19.6021807 L0,19.4183705 L0,8.58162954 C0,7.8335087 0.611877509,7.22703692 1.36666667,7.22703692 L8.17448889,7.22703692 L16.9129168,0.299376471 Z M16.4,4.17288211 L9.50930545,9.63938866 C9.26697762,9.83153822 8.9658866,9.93622215 8.65555556,9.93622215 L2.73333333,9.93622215 L2.73333333,18.0637778 L8.65555556,18.0637778 C8.90382039,18.0637778 9.14617161,18.1307756 9.35725336,18.2559552 L9.50930545,18.3606113 L16.4,23.8253118 L16.4,4.17288211 Z" id="Path"></path>
            <path d="M38.6669541,7.62378792 C39.2006706,7.09478659 40.0659961,7.09478659 40.5997126,7.62378792 C41.1334291,8.15278924 41.1334291,9.01046984 40.5997126,9.53947116 L29.6663793,20.3762121 C29.1326627,20.9052134 28.2673373,20.9052134 27.7336207,20.3762121 C27.1999042,19.8472108 27.1999042,18.9895302 27.7336207,18.4605288 L38.6669541,7.62378792 Z" id="Path"></path>
            <path d="M27.7336207,7.62378792 C28.2673373,7.09478659 29.1326627,7.09478659 29.6663793,7.62378792 L40.5997126,18.4605288 C41.1334291,18.9895302 41.1334291,19.8472108 40.5997126,20.3762121 C40.0659961,20.9052134 39.2006706,20.9052134 38.6669541,20.3762121 L27.7336207,9.53947116 C27.1999042,9.01046984 27.1999042,8.15278924 27.7336207,7.62378792 Z" id="Path"></path>
        </g>
    </g>
</svg>