<?xml version="1.0" encoding="UTF-8"?>
<svg width="48px" height="48px" viewBox="0 0 48 48" version="1.1" xmlns="http://www.w3.org/2000/svg" xmlns:xlink="http://www.w3.org/1999/xlink">
    <title>parks</title>
    <g id="parks" stroke="none" stroke-width="1" fill="none" fill-rule="evenodd">
        <g id="Group-3" transform="translate(4, 2)" fill="#3C433E" fill-rule="nonzero">
            <polygon id="Path" points="0 44 40 44 40 39.9835746 0 39.9835746"></polygon>
            <path d="M19.999,0 C29.64195,0 37.459,7.84917052 37.459,17.5316967 C37.459,27.2141777 29.6419149,35.0634536 19.999,35.0634536 C10.3561886,35.0634536 2.53906,27.2141411 2.53906,17.5316967 C2.53906,7.84920718 10.3561535,0 19.999,0 Z M19.999,4.01642535 C12.5652941,4.01642535 6.53906,10.067416 6.53906,17.5316967 C6.53906,24.9959402 12.5653372,31.0470282 19.999,31.0470282 C27.4327655,31.0470282 33.459,24.9959777 33.459,17.5316967 C33.459,10.0673786 27.4328086,4.01642535 19.999,4.01642535 Z" id="Path"></path>
            <polygon id="Path" points="22 41.9917873 22 21.9096606 18 21.9096606 18 41.9917873"></polygon>
        </g>
    </g>
</svg>