<?xml version="1.0" encoding="UTF-8"?>
<svg width="48px" height="48px" viewBox="0 0 48 48" version="1.1" xmlns="http://www.w3.org/2000/svg" xmlns:xlink="http://www.w3.org/1999/xlink">
    <title>pause</title>
    <g id="pause" stroke="none" stroke-width="1" fill="none" fill-rule="evenodd">
        <g id="Unknown" transform="translate(9.5, 7.5)" fill="#A78754" fill-rule="nonzero">
            <path d="M26.0383883,0 C27.6740109,0 29,1.32591179 29,2.96153423 L29,30.0385038 C29,31.6740496 27.673986,33 26.0383883,33 L20.9614848,33 C19.3259796,33 18,31.6740153 18,30.0385038 L18,2.96153423 C18,1.32594614 19.3259548,0 20.9614848,0 L26.0383883,0 Z M26.0383883,2.53846154 L20.9614848,2.53846154 C20.7278971,2.53846154 20.5384518,2.72790562 20.5384518,2.96153423 L20.5384518,30.0385038 C20.5384518,30.2720617 20.7279278,30.4615385 20.9614848,30.4615385 L26.0383883,30.4615385 C26.2720672,30.4615385 26.4615482,30.2720666 26.4615482,30.0385038 L26.4615482,2.96153423 C26.4615482,2.72790072 26.272098,2.53846154 26.0383883,2.53846154 Z" id="Path"></path>
            <path d="M8.03850499,0 C9.67404063,0 11,1.32594614 11,2.96153423 L11,30.0385038 C11,31.6740153 9.67401577,33 8.03850499,33 L2.96154578,33 C1.32595885,33 0,31.6740406 0,30.0385038 L0,2.96153423 C0,1.32592076 1.32593398,0 2.96154578,0 L8.03850499,0 Z M8.03850499,2.53846154 L2.96154578,2.53846154 C2.72788115,2.53846154 2.53846056,2.72788024 2.53846056,2.96153423 L2.53846056,30.0385038 C2.53846056,30.272087 2.7279119,30.4615385 2.96154578,30.4615385 L8.03850499,30.4615385 C8.27206271,30.4615385 8.46153944,30.2720617 8.46153944,30.0385038 L8.46153944,2.96153423 C8.46153944,2.72790562 8.27209346,2.53846154 8.03850499,2.53846154 Z" id="Path"></path>
        </g>
    </g>
</svg>