<?xml version="1.0" encoding="UTF-8"?>
<svg width="48px" height="48px" viewBox="0 0 48 48" version="1.1" xmlns="http://www.w3.org/2000/svg" xmlns:xlink="http://www.w3.org/1999/xlink">
    <title>prostredie</title>
    <g id="prostredie" stroke="none" stroke-width="1" fill="none" fill-rule="evenodd">
        <g id="Path-2" transform="translate(3.7402, 2.4408)" fill="#C9CFCB" fill-rule="nonzero">
            <path d="M40.5203143,0 L40.5203143,2.606466 C40.5223775,21.0914346 39.4273472,26.4309446 32.2450658,33.7259711 C29.559853,36.4533355 26.0192903,39.1536921 21.3163675,42.0783699 L20.2601788,42.7351981 L19.2039887,42.078372 C14.5010468,39.1536949 10.960471,36.4533383 8.27524998,33.7259731 C1.09297036,26.4309686 -0.0020612062,21.0914714 2.90848311e-06,2.60659398 L2.90848311e-06,0 L40.5203143,0 Z M36.5160508,4 L4.00205076,4 L4.00331112,4.36947643 C4.06738981,20.1132135 5.10518019,24.6809816 10.8098021,30.5956261 L11.1256138,30.9196541 C13.2385472,33.0657497 15.9976056,35.2413301 19.5955218,37.5866236 L20.2600508,38.014 L20.9248208,37.5866254 C24.2459608,35.4217388 26.8523383,33.4014601 28.8955422,31.415496 L29.3946981,30.9196561 C35.3770763,24.8433685 36.4517614,20.3994284 36.517006,4.36935753 L36.5160508,4 Z" id="Path"></path>
        </g>
    </g>
</svg>