<?xml version="1.0" encoding="UTF-8"?>
<svg width="48px" height="48px" viewBox="0 0 48 48" version="1.1" xmlns="http://www.w3.org/2000/svg" xmlns:xlink="http://www.w3.org/1999/xlink">
    <title>rainy</title>
    <g id="rainy" stroke="none" stroke-width="1" fill="none" fill-rule="evenodd">
        <g id="Group" transform="translate(2, 10)" fill="#3C433E" fill-rule="nonzero">
            <path d="M14.0261313,26.6657196 C13.6784313,26.8449196 13.3236913,26.8739196 12.9619313,26.7527196 C12.6001913,26.6315196 12.3330113,26.4011196 12.1603713,26.0613196 L0.160391282,2.06141959 C-0.019108718,1.71655959 -0.047948718,1.36317959 0.073891282,1.00127959 C0.195751282,0.639399592 0.427491282,0.368899592 0.769091282,0.189759592 C1.11069128,0.0170395919 1.46235128,-0.00874040812 1.82409128,0.112419592 C2.18585128,0.233559592 2.45627128,0.463979592 2.63533128,0.803719592 L14.6699313,24.8037196 C14.8493913,25.1485196 14.8738913,25.4987196 14.7434313,25.8541196 C14.6129313,26.2097196 14.3738313,26.4803196 14.0261313,26.6657196 Z M23.3669713,26.6657196 C23.0253713,26.8577196 22.6687713,26.8899196 22.2971713,26.7623196 C21.9255713,26.6347196 21.6485713,26.4011196 21.4661713,26.0613196 L9.46613128,2.06141959 C9.28667128,1.71655959 9.25897128,1.36317959 9.38303128,1.00127959 C9.50709128,0.639399592 9.74299128,0.368899592 10.0906913,0.189759592 C10.4384113,0.0170395919 10.7930313,-0.00874040812 11.1545313,0.112419592 C11.5159913,0.233559592 11.7877913,0.463979592 11.9699313,0.803719592 L24.0045713,24.8037196 C24.1775713,25.1485196 24.1999713,25.4987196 24.0717713,25.8541196 C23.9435713,26.2097196 23.7085713,26.4803196 23.3669713,26.6657196 Z M32.7107713,26.6561196 C32.3565713,26.8507196 31.9971713,26.8839196 31.6325713,26.7557196 C31.2677713,26.6275196 30.9955713,26.3877196 30.8161713,26.0363196 L18.8161713,2.03641959 C18.6365713,1.69155959 18.6089713,1.33657959 18.7329713,0.971479592 C18.8571713,0.606379592 19.0929713,0.334279592 19.4407713,0.155179592 C19.7883713,-0.0239604081 20.1429713,-0.0480004081 20.5045713,0.0830595919 C20.8659713,0.214159592 21.1377713,0.454379592 21.3199713,0.803719592 L33.3353713,24.7845196 C33.5083713,25.1293196 33.5345713,25.4789196 33.4135713,25.8331196 C33.2927713,26.1873196 33.0583713,26.4617196 32.7107713,26.6561196 Z M42.0261713,26.6657196 C41.6783713,26.8449196 41.3237713,26.8737196 40.9619713,26.7523196 C40.6001713,26.6307196 40.3329713,26.3921196 40.1603713,26.0363196 L28.1603713,2.03641959 C27.9809713,1.69155959 27.9515713,1.33657959 28.0723713,0.971479592 C28.1933713,0.606379592 28.4307713,0.334279592 28.7849713,0.155179592 C29.1325713,-0.0239604081 29.4889713,-0.0480004081 29.8539713,0.0830595919 C30.2187713,0.214159592 30.4907713,0.454379592 30.6699713,0.803719592 L42.6699713,24.8037196 C42.8493713,25.1485196 42.8739713,25.5019196 42.7433713,25.8639196 C42.6129713,26.2257196 42.3737713,26.4931196 42.0261713,26.6657196 Z" id="Shape"></path>
        </g>
    </g>
</svg>