<?xml version="1.0" encoding="UTF-8"?>
<svg width="48px" height="48px" viewBox="0 0 48 48" version="1.1" xmlns="http://www.w3.org/2000/svg" xmlns:xlink="http://www.w3.org/1999/xlink">
    <title>stromy</title>
    <g id="stromy" stroke="none" stroke-width="1" fill="none" fill-rule="evenodd">
        <g id="Group-7" transform="translate(2.1387, 2.4004)" fill="#492620" fill-rule="nonzero">
            <polygon id="Path" points="0.5 43.52 43.36006 43.52 43.36006 39.52 0.5 39.52"></polygon>
            <path d="M13.18,0.02 C20.459527,0.02 26.36006,5.91992789 26.36006,13.2 C26.36006,20.4787075 20.4588915,26.38 13.18,26.38 C5.90106206,26.38 0,20.4787411 0,13.2 C0,5.91989435 5.9004266,0.02 13.18,0.02 Z M13.18,4.02 C8.10948483,4.02 4,8.12911413 4,13.2 C4,18.2696319 8.11023093,22.38 13.18,22.38 C18.2497337,22.38 22.36006,18.2695873 22.36006,13.2 C22.36006,8.12915874 18.2504798,4.02 13.18,4.02 Z" id="Path"></path>
            <polygon id="Path" points="15.18164 41.518 15.18164 29.458 11.18164 29.458 11.18164 41.518"></polygon>
            <polygon id="Path" points="32.82026 41.518 32.82026 29.458 28.82026 29.458 28.82026 41.518"></polygon>
            <path d="M30.84126,0 C38.1258295,0 44.02126,5.8954305 44.02126,13.18 C44.02126,20.4645695 38.1258295,26.36 30.84126,26.36 C26.8494281,26.36 23.1532781,24.5813067 20.6766806,21.5705411 L23.7658394,19.0294589 C25.4893184,21.1246687 28.0563543,22.36 30.84126,22.36 C35.9166905,22.36 40.02126,18.2554305 40.02126,13.18 C40.02126,8.1045695 35.9166905,4 30.84126,4 C28.068311,4 25.4946976,5.24515537 23.7397346,7.35792645 L20.6627854,4.80207355 C23.1669348,1.78736944 26.8612512,0 30.84126,0 Z" id="Path"></path>
        </g>
    </g>
</svg>