<?xml version="1.0" encoding="UTF-8"?>
<svg width="48px" height="48px" viewBox="0 0 48 48" version="1.1" xmlns="http://www.w3.org/2000/svg" xmlns:xlink="http://www.w3.org/1999/xlink">
    <title>stu</title>
    <g id="stu" stroke="none" stroke-width="1" fill="none" fill-rule="evenodd">
        <g id="Group" transform="translate(3.6364, 10.7069)" fill="#60635E" fill-rule="nonzero">
            <polygon id="Path" points="29.6761455 0 29.6761455 12.0756364 32.5621818 12.0756364 32.5621818 13.0421818 35.4517818 13.0421818 35.4517818 14.008 38.3413818 14.008 38.3413818 14.9745455 39.2905455 14.9745455 39.2905455 0"></polygon>
            <polygon id="Path" points="28.9762909 18.5716364 15.4285818 18.5716364 4.01388364 18.5716364 0 18.5716364 0 26.1818182 15.9014545 26.1818182 15.9014545 23.5781818 24.8258182 23.5781818 24.8258182 26.1818182 40.7272727 26.1818182 40.7272727 18.5716364 39.9917091 18.5716364"></polygon>
            <polygon id="Path" points="24.1256727 24.2807273 16.6022545 24.2807273 16.6022545 26.1818182 24.1256727 26.1818182"></polygon>
            <polygon id="Path" points="14.7317091 16.8683636 4.71448727 16.8683636 4.71448727 17.8727273 14.7317091 17.8727273"></polygon>
            <polygon id="Path" points="40.5269091 17.8690909 40.5269091 15.6763636 37.6408727 15.6763636 37.6408727 14.7105455 34.7512727 14.7105455 34.7512727 13.744 31.8616727 13.744 31.8616727 12.7781818 29.6761455 12.7781818 29.6761455 17.8690909 39.2905455 17.8690909"></polygon>
        </g>
    </g>
</svg>