<?xml version="1.0" encoding="UTF-8"?>
<svg width="48px" height="48px" viewBox="0 0 48 48" version="1.1" xmlns="http://www.w3.org/2000/svg" xmlns:xlink="http://www.w3.org/1999/xlink">
    <title>studna</title>
    <g id="studna" stroke="none" stroke-width="1" fill="none" fill-rule="evenodd">
        <g id="Group-8" transform="translate(1.9795, 4.7204)" fill="#492620" fill-rule="nonzero">
            <polygon id="Path" points="17.32 25.22 17.32 39.04 13.32 39.04 13.318 29.22 0 29.22 0 25.22"></polygon>
            <polygon id="Path" points="43.86 25.22 43.86 29.22 30.56 29.22 30.56 39.04 26.56 39.04 26.56 25.22"></polygon>
            <polygon id="Path" points="24.04 39.038 24.04 14.058 20.04 14.058 20.04 39.038"></polygon>
            <path d="M2.32,23.8 C1.78,23.8 1.28,23.58 0.9,23.22 C0.52,22.84 0.32,22.34 0.32,21.8 C0.32,21.52 0.36,21.28 0.46,21.04 C0.56,20.78 0.72,20.56 0.9,20.38 C1.46,19.82 2.34,19.64 3.08,19.94 C3.32,20.04 3.54,20.2 3.72,20.38 C3.92,20.58 4.06,20.78 4.16,21.04 C4.26,21.28 4.32,21.54 4.32,21.8 C4.32,22.34 4.1,22.84 3.72,23.22 C3.36,23.58 2.86,23.8 2.32,23.8 Z" id="Path"></path>
            <path d="M2.66,17.58 C1.62,17.24 1.04,16.1 1.38,15.06 C1.72,14 2.86,13.42 3.9,13.76 C4.96,14.12 5.52,15.24 5.18,16.3 C4.92,17.14 4.12,17.68 3.28,17.68 C3.08,17.68 2.86,17.64 2.66,17.58 Z M39.02,16.28 C38.68,15.24 39.24,14.1 40.3,13.76 C41.34,13.42 42.48,14 42.82,15.04 C43.16,16.1 42.58,17.22 41.54,17.56 C41.34,17.64 41.12,17.66 40.92,17.66 C40.08,17.66 39.3,17.12 39.02,16.28 Z M4.92,11.78 C4.02,11.12 3.84,9.88 4.48,8.98 C5.12,8.1 6.38,7.9 7.28,8.54 C8.16,9.2 8.36,10.44 7.72,11.34 C7.32,11.88 6.72,12.16 6.1,12.16 C5.68,12.16 5.28,12.04 4.92,11.78 Z M36.48,11.34 C35.84,10.44 36.04,9.18 36.92,8.54 C37.82,7.9 39.06,8.08 39.72,8.98 C40.36,9.88 40.18,11.12 39.28,11.78 C38.92,12.02 38.52,12.16 38.1,12.16 C37.48,12.16 36.88,11.88 36.48,11.34 Z M8.86,6.96 C8.2,6.08 8.4,4.82 9.3,4.16 C10.18,3.52 11.44,3.72 12.1,4.62 C12.74,5.5 12.54,6.76 11.66,7.4 C11.3,7.66 10.88,7.78 10.48,7.78 C9.86,7.78 9.24,7.5 8.86,6.96 Z M32.54,7.4 C31.66,6.74 31.46,5.5 32.1,4.6 C32.76,3.72 34.02,3.52 34.9,4.16 C35.8,4.82 36,6.06 35.34,6.96 C34.96,7.5 34.34,7.78 33.72,7.78 C33.32,7.78 32.9,7.66 32.54,7.4 Z M14.08,3.58 C13.74,2.54 14.32,1.42 15.36,1.08 C16.42,0.74 17.54,1.3 17.88,2.36 C18.24,3.42 17.66,4.54 16.6,4.88 C16.4,4.94 16.18,4.98 15.98,4.98 C15.14,4.98 14.36,4.44 14.08,3.58 Z M27.6,4.88 C26.54,4.54 25.96,3.4 26.3,2.36 C26.66,1.3 27.78,0.72 28.84,1.08 C29.88,1.42 30.46,2.54 30.12,3.58 C29.84,4.44 29.06,4.98 28.22,4.98 C28,4.98 27.8,4.94 27.6,4.88 Z M22.1,4.02 C21,4.02 20.1,3.12 20.1,2 C20.1,0.9 21,0 22.1,0 C23.2,0 24.1,0.9 24.1,2 C24.1,3.12 23.2,4 22.1,4.02 Z" id="Shape"></path>
            <path d="M41.86,23.8 C41.34,23.8 40.84,23.58 40.46,23.22 C40.08,22.84 39.88,22.34 39.88,21.8 C39.88,21.52 39.92,21.28 40.02,21.04 C40.12,20.78 40.26,20.56 40.46,20.38 C40.64,20.2 40.86,20.04 41.1,19.94 C41.84,19.64 42.72,19.82 43.28,20.38 C43.48,20.58 43.62,20.78 43.72,21.04 C43.82,21.28 43.86,21.54 43.86,21.8 C43.86,22.34 43.66,22.84 43.28,23.22 C42.9,23.58 42.4,23.8 41.86,23.8 Z" id="Path"></path>
        </g>
    </g>
</svg>