<?xml version="1.0" encoding="UTF-8"?>
<svg width="48px" height="48px" viewBox="0 0 48 48" version="1.1" xmlns="http://www.w3.org/2000/svg" xmlns:xlink="http://www.w3.org/1999/xlink">
    <title>substrat</title>
    <g id="substrat" stroke="none" stroke-width="1" fill="none" fill-rule="evenodd">
        <g id="Group-6" transform="translate(1.9395, 2)" fill="#492620" fill-rule="nonzero">
            <polygon id="Path" points="0 4 44.16 4 44.16 0 0 0"></polygon>
            <polygon id="Path" points="0 44.41998 44.16 44.41998 44.16 40.41998 0 40.41998"></polygon>
            <path d="M6.04,24.39998 C4.832,24.39998 3.86,23.42778 3.86,22.21998 C3.86,21.01638 4.848,20.03998 6.04,20.03998 C7.228,20.03998 8.22,21.03238 8.22,22.21998 C8.22,23.41178 7.242,24.39998 6.04,24.39998 Z" id="Path"></path>
            <path d="M6.04,19.03998 C7.78017554,19.03998 9.22,20.479986 9.22,22.21998 C9.22,23.9668648 7.79149866,25.39998 6.04,25.39998 C4.2797702,25.39998 2.86,23.9801197 2.86,22.21998 C2.86,20.4672636 4.29252894,19.03998 6.04,19.03998 Z M6.04,21.03998 C5.3954594,21.03998 4.86,21.5734788 4.86,22.21998 C4.86,22.8755786 5.38436811,23.39998 6.04,23.39998 C6.68548285,23.39998 7.22,22.8637364 7.22,22.21998 C7.22,21.5844991 6.67554959,21.03998 6.04,21.03998 Z" id="Path"></path>
            <path d="M16.02,24.39998 C14.812,24.39998 13.84,23.42778 13.84,22.21998 C13.84,21.01638 14.828,20.03998 16.02,20.03998 C17.208,20.03998 18.2,21.03238 18.2,22.21998 C18.2,23.41178 17.224,24.39998 16.02,24.39998 Z" id="Path"></path>
            <path d="M16.02,19.03998 C17.7601755,19.03998 19.2,20.479986 19.2,22.21998 C19.2,23.9674165 17.7729529,25.39998 16.02,25.39998 C14.2597702,25.39998 12.84,23.9801197 12.84,22.21998 C12.84,20.4672636 14.2725289,19.03998 16.02,19.03998 Z M16.02,21.03998 C15.3754594,21.03998 14.84,21.5734788 14.84,22.21998 C14.84,22.8755786 15.3643681,23.39998 16.02,23.39998 C16.6666524,23.39998 17.2,22.8645707 17.2,22.21998 C17.2,21.5844991 16.6555496,21.03998 16.02,21.03998 Z" id="Path"></path>
            <path d="M26.02,24.39998 C24.812,24.39998 23.84,23.42778 23.84,22.21998 C23.84,21.01238 24.812,20.03998 26.02,20.03998 C27.224,20.03998 28.2,21.02818 28.2,22.21998 C28.2,23.40778 27.208,24.39998 26.02,24.39998 Z" id="Path"></path>
            <path d="M26.02,19.03998 C27.7729529,19.03998 29.2,20.4725435 29.2,22.21998 C29.2,23.9601194 27.7602301,25.39998 26.02,25.39998 C24.2597702,25.39998 22.84,23.9801197 22.84,22.21998 C22.84,20.4599853 24.2598251,19.03998 26.02,19.03998 Z M26.02,21.03998 C25.3644515,21.03998 24.84,21.564498 24.84,22.21998 C24.84,22.8755786 25.3643681,23.39998 26.02,23.39998 C26.6556324,23.39998 27.2,22.8555781 27.2,22.21998 C27.2,21.5753893 26.6666524,21.03998 26.02,21.03998 Z" id="Path"></path>
            <path d="M36,24.39998 C34.792,24.39998 33.82,23.42778 33.82,22.21998 C33.82,21.01238 34.792,20.03998 36,20.03998 C37.204,20.03998 38.18,21.02818 38.18,22.21998 C38.18,23.40778 37.188,24.39998 36,24.39998 Z" id="Path"></path>
            <path d="M36,19.03998 C37.7529529,19.03998 39.18,20.4725435 39.18,22.21998 C39.18,23.9601194 37.7402301,25.39998 36,25.39998 C34.2397702,25.39998 32.82,23.9801197 32.82,22.21998 C32.82,20.4599853 34.2398251,19.03998 36,19.03998 Z M36,21.03998 C35.3444515,21.03998 34.82,21.564498 34.82,22.21998 C34.82,22.8755786 35.3443681,23.39998 36,23.39998 C36.6356324,23.39998 37.18,22.8555781 37.18,22.21998 C37.18,21.5753893 36.6466524,21.03998 36,21.03998 Z" id="Path"></path>
            <path d="M6.04,14.29944 C4.832,14.29944 3.86,13.32716 3.86,12.11946 C3.86,10.91582 4.848,9.93946 6.04,9.93946 C7.228,9.93946 8.22,10.93174 8.22,12.11946 C8.22,13.31126 7.242,14.29944 6.04,14.29944 Z" id="Path"></path>
            <path d="M6.04,8.93946 C7.7802083,8.93946 9.22,10.3793788 9.22,12.11946 C9.22,13.8663438 7.79149957,15.29944 6.04,15.29944 C4.27979669,15.29944 2.86,13.8795262 2.86,12.11946 C2.86,10.3667145 4.2925179,8.93946 6.04,8.93946 Z M6.04,10.93946 C5.39544272,10.93946 4.86,11.4729354 4.86,12.11946 C4.86,12.7749936 5.38440312,13.29944 6.04,13.29944 C6.68548943,13.29944 7.22,12.7632098 7.22,12.11946 C7.22,11.4839088 6.67559928,10.93946 6.04,10.93946 Z" id="Path"></path>
            <path d="M16.02,14.29944 C14.812,14.29944 13.84,13.32716 13.84,12.11946 C13.84,10.91582 14.828,9.93946 16.02,9.93946 C17.208,9.93946 18.2,10.93174 18.2,12.11946 C18.2,13.31126 17.224,14.29944 16.02,14.29944 Z" id="Path"></path>
            <path d="M16.02,8.93946 C17.7602083,8.93946 19.2,10.3793788 19.2,12.11946 C19.2,13.8668955 17.7729538,15.29944 16.02,15.29944 C14.2597967,15.29944 12.84,13.8795262 12.84,12.11946 C12.84,10.3667145 14.2725179,8.93946 16.02,8.93946 Z M16.02,10.93946 C15.3754427,10.93946 14.84,11.4729354 14.84,12.11946 C14.84,12.7749936 15.3644031,13.29944 16.02,13.29944 C16.666659,13.29944 17.2,12.764044 17.2,12.11946 C17.2,11.4839088 16.6555993,10.93946 16.02,10.93946 Z" id="Path"></path>
            <path d="M26.02,14.29944 C24.812,14.29944 23.84,13.32716 23.84,12.11946 C23.84,10.91174 24.812,9.93946 26.02,9.93946 C27.224,9.93946 28.2,10.92764 28.2,12.11946 C28.2,13.30716 27.208,14.29944 26.02,14.29944 Z" id="Path"></path>
            <path d="M26.02,8.93946 C27.7729584,8.93946 29.2,10.372009 29.2,12.11946 C29.2,13.8595257 27.7602038,15.29944 26.02,15.29944 C24.2597967,15.29944 22.84,13.8795262 22.84,12.11946 C22.84,10.3593783 24.2597922,8.93946 26.02,8.93946 Z M26.02,10.93946 C25.3644015,10.93946 24.84,11.463908 24.84,12.11946 C24.84,12.7749936 25.3644031,13.29944 26.02,13.29944 C26.6555976,13.29944 27.2,12.7549929 27.2,12.11946 C27.2,11.4748577 26.6666607,10.93946 26.02,10.93946 Z" id="Path"></path>
            <path d="M36,14.29944 C34.792,14.29944 33.82,13.32716 33.82,12.11946 C33.82,10.91174 34.792,9.93946 36,9.93946 C37.204,9.93946 38.18,10.92764 38.18,12.11946 C38.18,13.30716 37.188,14.29944 36,14.29944 Z" id="Path"></path>
            <path d="M36,8.93946 C37.7529584,8.93946 39.18,10.372009 39.18,12.11946 C39.18,13.8595257 37.7402038,15.29944 36,15.29944 C34.2397967,15.29944 32.82,13.8795262 32.82,12.11946 C32.82,10.3593783 34.2397922,8.93946 36,8.93946 Z M36,10.93946 C35.3444015,10.93946 34.82,11.463908 34.82,12.11946 C34.82,12.7749936 35.3444031,13.29944 36,13.29944 C36.6355976,13.29944 37.18,12.7549929 37.18,12.11946 C37.18,11.4748577 36.6466607,10.93946 36,10.93946 Z" id="Path"></path>
            <path d="M6.04,34.49958 C4.836,34.49958 3.86,33.51138 3.86,32.31958 C3.86,31.13198 4.852,30.13958 6.04,30.13958 C7.232,30.13958 8.22,31.11598 8.22,32.31958 C8.22,33.52738 7.248,34.49958 6.04,34.49958 Z" id="Path"></path>
            <path d="M6.04,29.13958 C7.78747106,29.13958 9.22,30.5668636 9.22,32.31958 C9.22,34.0797197 7.8002298,35.49958 6.04,35.49958 C4.28704706,35.49958 2.86,34.0670165 2.86,32.31958 C2.86,30.579586 4.29982446,29.13958 6.04,29.13958 Z M6.04,31.13958 C5.40445041,31.13958 4.86,31.6840991 4.86,32.31958 C4.86,32.9641707 5.39334761,33.49958 6.04,33.49958 C6.69563189,33.49958 7.22,32.9751786 7.22,32.31958 C7.22,31.6730788 6.6845406,31.13958 6.04,31.13958 Z" id="Path"></path>
            <path d="M16.02,34.49958 C14.816,34.49958 13.84,33.51138 13.84,32.31958 C13.84,31.13198 14.832,30.13958 16.02,30.13958 C17.212,30.13958 18.2,31.11598 18.2,32.31958 C18.2,33.52738 17.228,34.49958 16.02,34.49958 Z" id="Path"></path>
            <path d="M16.02,29.13958 C17.7674711,29.13958 19.2,30.5668636 19.2,32.31958 C19.2,34.0797197 17.7802298,35.49958 16.02,35.49958 C14.2670471,35.49958 12.84,34.0670165 12.84,32.31958 C12.84,30.579586 14.2798245,29.13958 16.02,29.13958 Z M16.02,31.13958 C15.3844504,31.13958 14.84,31.6840991 14.84,32.31958 C14.84,32.9641707 15.3733476,33.49958 16.02,33.49958 C16.6756319,33.49958 17.2,32.9751786 17.2,32.31958 C17.2,31.6730788 16.6645406,31.13958 16.02,31.13958 Z" id="Path"></path>
            <path d="M26.02,34.49958 C24.816,34.49958 23.84,33.51138 23.84,32.31958 C23.84,31.12778 24.816,30.13958 26.02,30.13958 C27.228,30.13958 28.2,31.11198 28.2,32.31958 C28.2,33.52318 27.212,34.49958 26.02,34.49958 Z" id="Path"></path>
            <path d="M26.02,29.13958 C27.7801749,29.13958 29.2,30.5595853 29.2,32.31958 C29.2,34.0722964 27.7674711,35.49958 26.02,35.49958 C24.2670471,35.49958 22.84,34.0670165 22.84,32.31958 C22.84,30.5721435 24.2670471,29.13958 26.02,29.13958 Z M26.02,31.13958 C25.3733476,31.13958 24.84,31.6749893 24.84,32.31958 C24.84,32.9641707 25.3733476,33.49958 26.02,33.49958 C26.6645406,33.49958 27.2,32.9660812 27.2,32.31958 C27.2,31.664098 26.6755485,31.13958 26.02,31.13958 Z" id="Path"></path>
            <path d="M36,34.49958 C34.796,34.49958 33.82,33.51138 33.82,32.31958 C33.82,31.12778 34.796,30.13958 36,30.13958 C37.208,30.13958 38.18,31.11198 38.18,32.31958 C38.18,33.52318 37.192,34.49958 36,34.49958 Z" id="Path"></path>
            <path d="M36,29.13958 C37.7601749,29.13958 39.18,30.5595853 39.18,32.31958 C39.18,34.0722964 37.7474711,35.49958 36,35.49958 C34.2470471,35.49958 32.82,34.0670165 32.82,32.31958 C32.82,30.5721435 34.2470471,29.13958 36,29.13958 Z M36,31.13958 C35.3533476,31.13958 34.82,31.6749893 34.82,32.31958 C34.82,32.9641707 35.3533476,33.49958 36,33.49958 C36.6445406,33.49958 37.18,32.9660812 37.18,32.31958 C37.18,31.664098 36.6555485,31.13958 36,31.13958 Z" id="Path"></path>
        </g>
    </g>
</svg>