<?xml version="1.0" encoding="UTF-8"?>
<svg width="48px" height="48px" viewBox="0 0 48 48" version="1.1" xmlns="http://www.w3.org/2000/svg" xmlns:xlink="http://www.w3.org/1999/xlink">
    <title>train</title>
    <g id="train" stroke="none" stroke-width="1" fill="none" fill-rule="evenodd">
        <g id="Group-5" transform="translate(4, 2)" fill="#3C433E" fill-rule="nonzero">
            <polygon id="Path" points="0 44 40 44 40 39.9835746 0 39.9835746"></polygon>
            <path d="M27.6,0 C31.7982213,0 35.2,3.41625318 35.2,7.63120817 L35.2,28.6974194 C35.2,32.9123744 31.7982213,36.3286276 27.6,36.3286276 L12.32,36.3286276 C8.12319838,36.3286276 4.72,32.9117917 4.72,28.6974194 L4.72,7.63120817 C4.72,3.4168359 8.12319838,0 12.32,0 L27.6,0 Z M27.6,4.01642535 L12.32,4.01642535 C10.332249,4.01642535 8.72,5.63513509 8.72,7.63120817 L8.72,28.6974194 C8.72,30.6934925 10.332249,32.3122022 12.32,32.3122022 L27.6,32.3122022 C29.5889498,32.3122022 31.2,30.694297 31.2,28.6974194 L31.2,7.63120817 C31.2,5.63433057 29.5889498,4.01642535 27.6,4.01642535 Z" id="Path"></path>
            <path d="M35.2,20.7850615 L35.2,44 L4.72,44 L4.72,21.9096606 L6.72,21.9096606 L6.72,20.7850615 L35.2,20.7850615 Z M31.2,24.7994786 L8.72,24.7994786 L8.72,39.9835746 L31.2,39.9835746 L31.2,24.7994786 Z" id="Path"></path>
        </g>
    </g>
</svg>