<?xml version="1.0" encoding="UTF-8"?>
<svg width="48px" height="48px" viewBox="0 0 48 48" version="1.1" xmlns="http://www.w3.org/2000/svg" xmlns:xlink="http://www.w3.org/1999/xlink">
    <title>travnik</title>
    <g id="travnik" stroke="none" stroke-width="1" fill="none" fill-rule="evenodd">
        <g id="Group" transform="translate(2, 2)" fill="#492620" fill-rule="nonzero">
            <path d="M42.160132,4.01934 C41.640132,4.01934 41.120132,3.79934 40.760132,3.41934 C40.560132,3.23934 40.420132,3.01934 40.320132,2.77934 C40.220132,2.53934 40.160132,2.27934 40.160132,2.01934 C40.160132,1.75934 40.220132,1.49934 40.320132,1.23934 C40.420132,0.99934 40.560132,0.77934 40.760132,0.59934 C41.220132,0.13934 41.920132,-0.080664 42.560132,0.05934 C42.680132,0.07934 42.800132,0.11934 42.940132,0.15934 C43.060132,0.21934 43.160132,0.27934 43.280132,0.35934 C43.380132,0.41934 43.480132,0.49934 43.580132,0.59934 C43.760132,0.77934 43.900132,0.99934 44.020132,1.23934 C44.120132,1.49934 44.160132,1.75934 44.160132,2.01934 C44.160132,2.27934 44.120132,2.53934 44.020132,2.77934 C43.900132,3.01934 43.760132,3.23934 43.580132,3.41934 C43.480132,3.51934 43.380132,3.59934 43.280132,3.67934 C43.160132,3.73934 43.060132,3.81934 42.940132,3.85934 C42.800132,3.89934 42.680132,3.93934 42.560132,3.97934 C42.420132,3.99934 42.300132,4.01934 42.160132,4.01934 Z" id="Path"></path>
            <path d="M2,43.91978 C1.739992,43.91978 1.479992,43.87978 1.239992,43.77978 C0.979992,43.67978 0.759992,43.51978 0.579992,43.33978 C0.199992,42.97978 0,42.45978 0,41.91978 C0,41.37978 0.199992,40.87978 0.579992,40.51978 C0.759992,40.31978 0.979992,40.17978 1.239992,40.07978 C1.719992,39.87978 2.279992,39.87978 2.759992,40.07978 C3,40.17978 3.219992,40.31978 3.419992,40.51978 C3.779992,40.87978 4,41.39978 4,41.91978 C4,42.43978 3.779992,42.97978 3.419992,43.33978 C3.219992,43.51978 3,43.67978 2.759992,43.77978 C2.519992,43.87978 2.259992,43.91978 2,43.91978 Z" id="Path"></path>
            <path d="M42.160132,23.97958 C41.640132,23.97958 41.120132,23.75958 40.760132,23.37958 C40.380132,23.01958 40.160132,22.49958 40.160132,21.97958 C40.160132,21.69958 40.220132,21.45958 40.320132,21.19958 C40.420132,20.95958 40.560132,20.73958 40.760132,20.55958 C41.500132,19.81958 42.820132,19.79958 43.580132,20.55958 C43.760132,20.73958 43.900132,20.95958 44.000132,21.19958 C44.100132,21.45958 44.160132,21.69958 44.160132,21.97958 C44.160132,22.49958 43.940132,23.01958 43.580132,23.37958 C43.200132,23.75958 42.680132,23.97958 42.160132,23.97958 Z" id="Path"></path>
            <path d="M32.139132,21.97958 C32.139132,20.85958 33.019132,19.97958 34.139132,19.97958 C35.239132,19.97958 36.139132,20.85958 36.139132,21.97958 C36.139132,23.07958 35.239132,23.97958 34.139132,23.97958 C33.019132,23.97958 32.139132,23.07958 32.139132,21.97958 Z" id="Path"></path>
            <path d="M24.099132,21.97958 C24.099132,20.85958 24.999132,19.97958 26.099132,19.97958 C27.199132,19.97958 28.099132,20.85958 28.099132,21.97958 C28.099132,23.07958 27.199132,23.97958 26.099132,23.97958 C24.999132,23.97958 24.099132,23.07958 24.099132,21.97958 Z" id="Path"></path>
            <path d="M16.059072,21.97958 C16.059072,20.85958 16.959072,19.97958 18.059132,19.97958 C19.179132,19.97958 20.059132,20.85958 20.059132,21.97958 C20.059132,23.07958 19.179132,23.97958 18.059132,23.97958 C16.959072,23.97958 16.059072,23.07958 16.059072,21.97958 Z" id="Path"></path>
            <path d="M8.039072,21.97958 C8.039072,20.85958 8.919072,19.97958 10.019072,19.97958 C11.139072,19.97958 12.039072,20.85958 12.039072,21.97958 C12.039072,23.07958 11.139072,23.97958 10.019072,23.97958 C8.919072,23.97958 8.039072,23.07958 8.039072,21.97958 Z" id="Path"></path>
            <path d="M2,23.97998 C1.479992,23.97998 0.959992,23.75978 0.579992,23.37978 C0.199992,23.01978 0,22.49998 0,21.97998 C0,21.69998 0.039992,21.45978 0.139992,21.19978 C0.259992,20.95978 0.399992,20.73998 0.579992,20.55998 C1.339992,19.81978 2.659992,19.81978 3.399992,20.55998 C3.599992,20.73998 3.739992,20.95978 3.839992,21.19978 C3.939992,21.45978 4,21.69998 4,21.97998 C4,22.49998 3.779992,23.01978 3.399992,23.37978 C3.039992,23.75978 2.519992,23.97998 2,23.97998 Z" id="Path"></path>
            <path d="M2,13.99992 C1.739992,13.99992 1.479992,13.93992 1.239992,13.83992 C1,13.73992 0.779992,13.59992 0.579992,13.39992 C0.399992,13.21992 0.239992,12.99992 0.139992,12.75992 C0.039992,12.51992 0,12.25992 0,11.99992 C0,11.71992 0.039992,11.45992 0.139992,11.21992 C0.239992,10.97992 0.399992,10.75992 0.579992,10.57992 C0.779992,10.37992 1,10.23992 1.239992,10.13992 C1.959992,9.83992 2.839992,10.01992 3.399992,10.57992 C3.599992,10.75992 3.739992,10.97992 3.839992,11.21992 C3.939992,11.45992 4,11.71992 4,11.99992 C4,12.25992 3.939992,12.51992 3.839992,12.75992 C3.739992,12.99992 3.599992,13.21992 3.399992,13.39992 C3.019992,13.77992 2.519992,13.99992 2,13.99992 Z" id="Path"></path>
            <path d="M42.160132,33.93938 C41.640132,33.93938 41.140132,33.73938 40.760132,33.35938 C40.560132,33.17938 40.420132,32.95938 40.320132,32.71938 C40.220132,32.47938 40.160132,32.21938 40.160132,31.93938 C40.160132,31.41938 40.380132,30.91938 40.760132,30.53938 C40.940132,30.33938 41.160132,30.19938 41.400132,30.09938 C42.120132,29.79938 43.020132,29.95938 43.580132,30.53938 C43.960132,30.91938 44.160132,31.41938 44.160132,31.93938 C44.160132,32.21938 44.120132,32.47938 44.020132,32.71938 C43.920132,32.95938 43.760132,33.17938 43.580132,33.35938 C43.200132,33.73938 42.700132,33.93938 42.160132,33.93938 Z" id="Path"></path>
            <path d="M34.459932,4 L2,4 C0.899992,4 0,3.1 0,2 C0,0.9 0.899992,0 2,0 L34.479932,0 C35.579932,0 36.479932,0.9 36.479932,2 C36.479932,3.1 35.579932,4 34.479932,4 L34.459932,4 Z" id="Path"></path>
            <path d="M42.158932,43.91998 L9.958992,43.91998 C8.858992,43.91998 7.958992,43.01998 7.958992,41.91998 C7.958992,40.81998 8.858992,39.91998 9.958992,39.91998 L42.158932,39.91998 C43.258932,39.91998 44.158932,40.81998 44.158932,41.91998 C44.158932,43.01998 43.258932,43.91998 42.158932,43.91998 Z" id="Path"></path>
            <path d="M42.158932,13.97948 L9.958992,13.97948 C8.858992,13.97948 7.958992,13.07948 7.958992,11.97948 C7.958992,10.87948 8.858992,9.97948 9.958992,9.97948 L42.158932,9.97948 C43.258932,9.97948 44.158932,10.87948 44.158932,11.97948 C44.158932,13.07948 43.258932,13.97948 42.158932,13.97948 Z" id="Path"></path>
            <path d="M34.099932,33.93938 L2,33.93938 C0.899992,33.93938 0,33.03938 0,31.93938 C0,30.83938 0.899992,29.93938 2,29.93938 L34.099932,29.93938 C35.199932,29.93938 36.099932,30.83938 36.099932,31.93938 C36.099932,33.03938 35.199932,33.93938 34.099932,33.93938 Z" id="Path"></path>
        </g>
    </g>
</svg>