<?xml version="1.0" encoding="UTF-8"?>
<svg width="48px" height="48px" viewBox="0 0 48 48" version="1.1" xmlns="http://www.w3.org/2000/svg" xmlns:xlink="http://www.w3.org/1999/xlink">
    <title>unmute</title>
    <g id="unmute" stroke="none" stroke-width="1" fill="none" fill-rule="evenodd">
        <g id="Group" transform="translate(3.5, 10)" fill="#D8D8D8" fill-rule="nonzero">
            <path d="M16.4061035,0.419549553 C17.2741318,-0.283776802 18.559983,0.342159183 18.559983,1.46803069 L18.559983,26.5319693 C18.559983,27.6578408 17.2741318,28.2837768 16.4061035,27.5804504 L7.93129939,20.713555 L1.32571307,20.713555 C0.654556218,20.713555 0.0998863623,20.2084202 0.0121021978,19.5530419 L0,19.370844 L0,8.62915601 C0,7.8875972 0.593541959,7.28644501 1.32571307,7.28644501 L7.92953178,7.28644501 L16.4061035,0.419549553 Z M15.9085568,4.25907928 L9.22434917,9.67763715 C8.98928294,9.86810129 8.69721443,9.97186701 8.39618278,9.97186701 L2.65142614,9.97186701 L2.65142614,18.028133 L8.39618278,18.028133 C8.6370081,18.028133 8.87209701,18.0945431 9.07685347,18.2186247 L9.22434917,18.3223629 L15.9085568,23.7391304 L15.9085568,4.25907928 Z" id="Path"></path>
            <path d="M30.5616634,0.393127591 C31.0794647,-0.131154485 31.9188598,-0.131026112 32.4365048,0.393414322 C39.8544984,7.9087887 39.8544984,20.0912113 32.4365048,27.6065857 C31.9188598,28.1310261 31.0794647,28.1311545 30.5616634,27.6068724 C30.0438621,27.0825903 30.0437353,26.2324328 30.5613803,25.7079923 C36.944305,19.2412748 36.944305,8.75872516 30.5613803,2.29200767 C30.0437353,1.76756724 30.0438621,0.917409668 30.5616634,0.393127591 Z M24.3219739,6.71282069 C24.8397752,6.18853861 25.6791703,6.18866698 26.1968153,6.71310742 C30.1645793,10.7329588 30.1645793,17.2491384 26.1968153,21.2689898 C25.6791703,21.7934302 24.8397752,21.7935586 24.3219739,21.2692765 C23.8041726,20.7449944 23.8040458,19.8948369 24.3216908,19.3703964 C27.2543859,16.3992019 27.2543859,11.5828953 24.3216908,8.61170077 C23.8040458,8.08726033 23.8041726,7.23710276 24.3219739,6.71282069 Z" id="Shape"></path>
        </g>
    </g>
</svg>