<?xml version="1.0" encoding="UTF-8"?>
<svg width="48px" height="48px" viewBox="0 0 48 48" version="1.1" xmlns="http://www.w3.org/2000/svg" xmlns:xlink="http://www.w3.org/1999/xlink">
    <title>vetranie</title>
    <g id="vetranie" stroke="none" stroke-width="1" fill="none" fill-rule="evenodd">
        <g id="Group" transform="translate(1.7608, 2.2002)" fill="#3C433E" fill-rule="nonzero">
            <path d="M0,1.880004 C0,0.840004 0.84,0 1.88,0 C5.78,0 7.82,1.120004 9.62,2.100004 C11.22,2.980004 12.62,3.740004 15.56,3.740004 C18.5,3.740004 19.9,2.980004 21.5,2.100004 C23.3,1.120004 25.34,0 29.26,0 C33.18,0 35.2,1.120004 37.02,2.100004 C38.64,2.980004 40.02,3.740004 42.96,3.740004 C44,3.740004 44.84,4.580004 44.84,5.620004 C44.84,6.660004 44,7.5 42.96,7.5 C39.06,7.5 37.02,6.380004 35.2,5.400004 C33.58,4.520004 32.2,3.760004 29.26,3.760004 C26.32,3.760004 24.92,4.520004 23.32,5.400004 C21.52,6.380004 19.48,7.5 15.56,7.5 C11.64,7.5 9.62,6.380004 7.82,5.400004 C6.2,4.520004 4.82,3.760004 1.88,3.760004 C0.84,3.760004 0,2.920004 0,1.880004 Z" id="Path"></path>
            <path d="M0,11.159784 C0,10.119784 0.84,9.279784 1.88,9.279784 C5.78,9.279784 7.82,10.399784 9.62,11.379784 C11.22,12.259784 12.62,13.019784 15.56,13.019784 C18.5,13.019784 19.9,12.259784 21.5,11.379784 C23.3,10.399784 25.34,9.279784 29.26,9.279784 C33.18,9.279784 35.2,10.399784 37.02,11.379784 C38.64,12.259784 40.02,13.019784 42.96,13.019784 C44,13.019784 44.84,13.859784 44.84,14.899784 C44.84,15.939784 44,16.779784 42.96,16.779784 C39.06,16.779784 37.02,15.659784 35.2,14.679784 C33.58,13.799784 32.2,13.039784 29.26,13.039784 C26.32,13.039784 24.92,13.799784 23.32,14.679784 C21.52,15.659784 19.48,16.779784 15.56,16.779784 C11.64,16.779784 9.62,15.659784 7.82,14.679784 C6.22,13.799784 4.82,13.039784 1.88,13.039784 C0.84,13.039784 0,12.199784 0,11.159784 Z" id="Path"></path>
            <path d="M0,20.439604 C0,19.399604 0.84,18.559604 1.88,18.559604 C5.78,18.559604 7.82,19.679604 9.62,20.659604 C11.22,21.539604 12.62,22.299604 15.56,22.299604 C18.5,22.299604 19.9,21.539604 21.5,20.659604 C23.3,19.679604 25.34,18.559604 29.26,18.559604 C33.18,18.559604 35.2,19.679604 37.02,20.659604 C38.64,21.539604 40.02,22.299604 42.96,22.299604 C44,22.299604 44.84,23.139604 44.84,24.179604 C44.84,25.219604 44,26.059604 42.96,26.059604 C39.06,26.059604 37.02,24.939604 35.2,23.959604 C33.58,23.079604 32.2,22.319604 29.26,22.319604 C26.32,22.319604 24.92,23.079604 23.32,23.959604 C21.52,24.939604 19.48,26.059604 15.56,26.059604 C11.64,26.059604 9.62,24.939604 7.82,23.959604 C6.2,23.079604 4.82,22.319604 1.88,22.319604 C0.84,22.319604 0,21.479604 0,20.439604 Z" id="Path"></path>
            <path d="M0,29.719804 C0,28.679804 0.84,27.839804 1.88,27.839804 C5.78,27.839804 7.82,28.959804 9.62,29.939804 C11.22,30.819804 12.62,31.579804 15.56,31.579804 C18.5,31.579804 19.9,30.819804 21.5,29.939804 C23.3,28.959804 25.34,27.839804 29.26,27.839804 C33.18,27.839804 35.2,28.959804 37.02,29.939804 C38.64,30.819804 40.02,31.579804 42.96,31.579804 C44,31.579804 44.84,32.419804 44.84,33.459804 C44.84,34.499804 44,35.339804 42.96,35.339804 C39.06,35.339804 37.02,34.219804 35.2,33.239804 C33.58,32.359804 32.2,31.599804 29.26,31.599804 C26.32,31.599804 24.92,32.359804 23.32,33.239804 C21.52,34.219804 19.48,35.339804 15.56,35.339804 C11.64,35.339804 9.62,34.219804 7.82,33.239804 C6.2,32.359804 4.82,31.599804 1.88,31.599804 C0.84,31.599804 0,30.759804 0,29.719804 Z" id="Path"></path>
            <path d="M0,38.999604 C0,37.959604 0.84,37.119604 1.88,37.119604 C5.78,37.119604 7.82,38.239604 9.62,39.219604 C11.22,40.099604 12.62,40.859604 15.56,40.859604 C18.5,40.859604 19.9,40.099604 21.5,39.219604 C23.3,38.239604 25.34,37.119604 29.26,37.119604 C33.18,37.119604 35.2,38.239604 37.02,39.219604 C38.64,40.099604 40.02,40.859604 42.96,40.859604 C44,40.859604 44.84,41.699604 44.84,42.739604 C44.84,43.779604 44,44.619604 42.96,44.619604 C39.06,44.619604 37.02,43.499604 35.2,42.519604 C33.58,41.639604 32.2,40.879604 29.26,40.879604 C26.32,40.879604 24.92,41.639604 23.32,42.519604 C21.52,43.499604 19.48,44.619604 15.56,44.619604 C11.64,44.619604 9.62,43.499604 7.82,42.519604 C6.22,41.639604 4.82,40.879604 1.88,40.879604 C0.84,40.879604 0,40.039604 0,38.999604 Z" id="Path"></path>
        </g>
    </g>
</svg>