<?xml version="1.0" encoding="UTF-8"?>
<svg width="48px" height="48px" viewBox="0 0 48 48" version="1.1" xmlns="http://www.w3.org/2000/svg" xmlns:xlink="http://www.w3.org/1999/xlink">
    <title>youtube</title>
    <g id="youtube" stroke="none" stroke-width="1" fill-rule="evenodd">
        <path d="M42.598,14.725 C42.1564626,13.0621834 40.8629299,11.7602685 39.203,11.308 C36.208,10.5 24.203,10.5 24.203,10.5 C24.203,10.5 12.195,10.5 9.203,11.308 C7.54075993,11.7584188 6.24461226,13.0606642 5.802,14.725 C5.002,17.739 5.002,24.025 5.002,24.025 C5.002,24.025 5.002,30.314 5.802,33.325 C6.24721392,34.9743688 7.54336127,36.2579174 9.197,36.687 C12.192,37.495 24.197,37.495 24.197,37.495 C24.197,37.495 36.205,37.495 39.197,36.687 C40.8506387,36.2579174 42.1467861,34.9743688 42.592,33.325 C43.392,30.311 43.392,24.025 43.392,24.025 C43.392,24.025 43.392,17.736 42.592,14.725 L42.598,14.725 Z M20.273,29.737 L20.273,18.318 L30.309,24.028 L20.273,29.737 Z" id="Icon_awesome-youtube" fill-rule="nonzero"></path>
    </g>
</svg>
